<svg width="237" height="252" viewBox="0 0 237 252" fill="none" xmlns="http://www.w3.org/2000/svg">
<path d="M119.183 251.997C115.29 251.984 111.414 251.481 107.647 250.5L106.904 250.294L106.215 249.947C81.3092 237.422 60.2974 220.877 43.7633 200.773C30.0765 184.033 19.4057 165.027 12.2306 144.608C3.6504 120.163 -0.477533 94.3687 0.0438933 68.4576C0.0544146 67.9137 0.063319 67.4937 0.063319 67.2044C0.063319 54.6088 7.03342 43.5571 17.8204 39.0487C26.0763 35.5981 101.035 4.71488 106.451 2.48348C116.651 -2.64296 127.533 1.63586 129.274 2.38411C133.18 3.98594 202.475 32.4156 217.449 39.568C232.882 46.9395 237 60.1822 237 66.8448C237 97.0087 231.792 125.199 221.52 150.633C213.225 171.22 201.468 190.226 186.761 206.823C158.387 238.853 130.004 250.207 129.73 250.307C126.338 251.478 122.77 252.05 119.183 251.997ZM112.508 235.413C114.969 235.966 120.634 236.796 124.327 235.445C129.017 233.729 152.773 221.372 174.972 196.314C205.643 161.693 221.205 118.17 221.228 66.9561C221.173 65.9185 220.439 58.5182 210.669 53.8518C195.984 46.8377 123.958 17.2957 123.232 16.998L123.033 16.9133C121.524 16.2789 116.72 14.9425 113.409 16.683L112.746 16.9931C111.943 17.3238 32.3728 50.1053 23.8866 53.652C17.9503 56.1331 15.8352 62.2795 15.8352 67.2044C15.8352 67.5643 15.8259 68.0878 15.8128 68.7645C15.1346 103.807 23.2188 190.036 112.508 235.413Z" fill="#0D2860"/>
<path d="M109.764 9.75655C109.764 9.75655 29.5571 42.8116 20.9635 46.4045C12.3699 49.9975 8.07311 58.6205 8.07311 67.2436C8.07311 75.8667 1.62794 188.386 109.764 242.789C109.764 242.789 119.578 245.514 127.024 242.789C134.47 240.064 229 194.074 229 66.8843C229 66.8843 229 53.9497 213.961 46.7638C198.922 39.578 126.212 9.75655 126.212 9.75655C126.212 9.75655 117.283 5.80431 109.764 9.75655Z" fill="#6B398A"/>
<path opacity="0.1" d="M118 36V212C118 212 37.2905 172.988 38.0047 70.4263L118 36Z" fill="black"/>
<path d="M58.7108 64.9091L59.1426 62.3636H69.2562L68.8244 64.9091H65.3244L63.8244 74H60.7108L62.2108 64.9091H58.7108ZM69.7933 74L71.7252 62.3636H80.1115L79.6797 64.9091H74.4524L74.1343 66.9091H78.9297L78.4979 69.4545H73.7024L73.3843 71.4545H78.5888L78.157 74H69.7933ZM84.0492 74H80.6401L86.4128 62.3636H90.731L92.6401 74H89.231L88.0947 65.5682H88.0037L84.0492 74ZM84.1856 69.4091H90.5947L90.1856 71.7727H83.7765L84.1856 69.4091ZM96.9727 62.3636H100.904L102.518 68.9545H102.654L106.45 62.3636H110.382L108.45 74H105.359L106.473 67.2727H106.382L102.7 73.9091H100.836L99.359 67.2273H99.2681L98.1318 74H95.0409L96.9727 62.3636ZM116.876 64.9091L117.308 62.3636H127.422L126.99 64.9091H123.49L121.99 74H118.876L120.376 64.9091H116.876ZM127.959 74L129.891 62.3636H138.277L137.845 64.9091H132.618L132.3 66.9091H137.095L136.664 69.4545H131.868L131.55 71.4545H136.754L136.323 74H127.959ZM142.215 74H138.806L144.578 62.3636H148.897L150.806 74H147.397L146.26 65.5682H146.169L142.215 74ZM142.351 69.4091H148.76L148.351 71.7727H141.942L142.351 69.4091ZM164.716 66.7273H161.557C161.58 66.4583 161.565 66.2159 161.512 66C161.459 65.7841 161.368 65.5985 161.239 65.4432C161.11 65.2841 160.942 65.1629 160.733 65.0795C160.525 64.9962 160.277 64.9545 159.989 64.9545C159.436 64.9545 158.942 65.0928 158.506 65.3693C158.071 65.642 157.709 66.0341 157.421 66.5455C157.133 67.053 156.929 67.6591 156.807 68.3636C156.701 69.0455 156.697 69.6117 156.796 70.0625C156.898 70.5133 157.097 70.8504 157.393 71.0739C157.692 71.2973 158.08 71.4091 158.557 71.4091C158.876 71.4091 159.167 71.3712 159.432 71.2955C159.701 71.2197 159.94 71.1117 160.148 70.9716C160.36 70.8277 160.54 70.6572 160.688 70.4602C160.84 70.2595 160.955 70.0379 161.035 69.7955H164.216C164.095 70.2879 163.879 70.7917 163.569 71.3068C163.258 71.8182 162.857 72.2898 162.364 72.7216C161.872 73.1496 161.292 73.4962 160.626 73.7614C159.959 74.0265 159.209 74.1591 158.376 74.1591C157.285 74.1591 156.343 73.9205 155.552 73.4432C154.764 72.9659 154.192 72.2689 153.836 71.3523C153.483 70.4356 153.413 69.3182 153.626 68C153.838 66.7273 154.256 65.661 154.881 64.8011C155.506 63.9413 156.266 63.2936 157.16 62.858C158.054 62.4223 159.004 62.2045 160.012 62.2045C160.773 62.2045 161.455 62.3049 162.057 62.5057C162.663 62.7064 163.173 63 163.586 63.3864C164.002 63.7689 164.309 64.2405 164.506 64.8011C164.703 65.3617 164.773 66.0038 164.716 66.7273ZM166.236 74L168.168 62.3636H171.327L170.577 66.9091H174.759L175.509 62.3636H178.668L176.736 74H173.577L174.327 69.4545H170.146L169.396 74H166.236ZM83.2486 90.7273H80.0895C80.1122 90.4583 80.0971 90.2159 80.0441 90C79.991 89.7841 79.9001 89.5985 79.7713 89.4432C79.6425 89.2841 79.474 89.1629 79.2657 89.0795C79.0573 88.9962 78.8092 88.9545 78.5213 88.9545C77.9683 88.9545 77.474 89.0928 77.0384 89.3693C76.6028 89.642 76.241 90.0341 75.9532 90.5455C75.6653 91.053 75.4607 91.6591 75.3395 92.3636C75.2335 93.0455 75.2297 93.6117 75.3282 94.0625C75.4304 94.5133 75.6293 94.8504 75.9247 95.0739C76.224 95.2973 76.6122 95.4091 77.0895 95.4091C77.4077 95.4091 77.6994 95.3712 77.9645 95.2955C78.2335 95.2197 78.4721 95.1117 78.6804 94.9716C78.8925 94.8277 79.0725 94.6572 79.2202 94.4602C79.3717 94.2595 79.4872 94.0379 79.5668 93.7955H82.7486C82.6274 94.2879 82.4115 94.7917 82.1009 95.3068C81.7903 95.8182 81.3888 96.2898 80.8963 96.7216C80.4039 97.1496 79.8244 97.4962 79.1577 97.7614C78.491 98.0265 77.741 98.1591 76.9077 98.1591C75.8168 98.1591 74.8755 97.9205 74.0838 97.4432C73.296 96.9659 72.724 96.2689 72.3679 95.3523C72.0157 94.4356 71.9456 93.3182 72.1577 92C72.3698 90.7273 72.7884 89.661 73.4134 88.8011C74.0384 87.9413 74.7979 87.2936 75.6918 86.858C76.5857 86.4223 77.5365 86.2045 78.5441 86.2045C79.3054 86.2045 79.9872 86.3049 80.5895 86.5057C81.1956 86.7064 81.705 87 82.1179 87.3864C82.5346 87.7689 82.8414 88.2405 83.0384 88.8011C83.2354 89.3617 83.3054 90.0038 83.2486 90.7273ZM84.7687 98L86.7005 86.3636H95.0868L94.655 88.9091H89.4278L89.1096 90.9091H93.905L93.4732 93.4545H88.6778L88.3596 95.4545H93.5641L93.1323 98H84.7687ZM96.0018 98L97.9336 86.3636H102.956C103.82 86.3636 104.549 86.5208 105.144 86.8352C105.739 87.1496 106.167 87.6023 106.428 88.1932C106.689 88.7841 106.752 89.4924 106.615 90.3182C106.479 91.1515 106.178 91.8542 105.712 92.4261C105.25 92.9943 104.661 93.4261 103.945 93.7216C103.233 94.0133 102.434 94.1591 101.547 94.1591H98.5472L98.9563 91.7045H101.32C101.691 91.7045 102.017 91.6591 102.297 91.5682C102.578 91.4735 102.805 91.3258 102.979 91.125C103.153 90.9205 103.267 90.6515 103.32 90.3182C103.373 89.9848 103.346 89.714 103.24 89.5057C103.134 89.2936 102.958 89.1383 102.712 89.0398C102.466 88.9375 102.161 88.8864 101.797 88.8864H100.684L99.1609 98H96.0018ZM103.706 92.6591L105.729 98H102.297L100.343 92.6591H103.706ZM109.307 88.9091L109.739 86.3636H119.853L119.421 88.9091H115.921L114.421 98H111.307L112.807 88.9091H109.307ZM125.481 86.3636L123.549 98H120.39L122.322 86.3636H125.481ZM126.326 98L128.258 86.3636H136.44L136.008 88.9091H130.985L130.667 90.9091H135.19L134.758 93.4545H130.235L129.485 98H126.326ZM142.041 86.3636L140.109 98H136.95L138.882 86.3636H142.041ZM142.886 98L144.818 86.3636H153.204L152.773 88.9091H147.545L147.227 90.9091H152.023L151.591 93.4545H146.795L146.477 95.4545H151.682L151.25 98H142.886ZM158.665 98H154.119L156.051 86.3636H160.415C161.612 86.3636 162.612 86.6042 163.415 87.0852C164.218 87.5663 164.788 88.2538 165.125 89.1477C165.462 90.0417 165.528 91.1061 165.324 92.3409C165.127 93.5303 164.727 94.5473 164.125 95.392C163.526 96.2367 162.761 96.8826 161.83 97.3295C160.901 97.7765 159.847 98 158.665 98ZM157.722 95.3182H158.869C159.445 95.3182 159.958 95.2178 160.409 95.017C160.864 94.8125 161.242 94.4716 161.545 93.9943C161.852 93.5133 162.074 92.8561 162.21 92.0227C162.339 91.2348 162.335 90.6269 162.199 90.1989C162.062 89.767 161.803 89.4678 161.42 89.3011C161.038 89.1307 160.544 89.0455 159.937 89.0455H158.767L157.722 95.3182Z" fill="white"/>
<path d="M109.709 188L84 155.146L98.9511 143.59L111.125 159.145L152.248 116L166 128.949L109.709 188Z" fill="white"/>
</svg>
