<svg width="237" height="252" fill="none" xmlns="http://www.w3.org/2000/svg"><path d="M119.183 251.997a46.391 46.391 0 0 1-11.536-1.497l-.743-.206-.689-.347c-24.906-12.525-45.918-29.07-62.452-49.174a186.31 186.31 0 0 1-31.532-56.165A216.771 216.771 0 0 1 .044 68.458c.01-.544.02-.964.02-1.254 0-12.595 6.97-23.647 17.756-28.155 8.256-3.45 83.215-34.334 88.631-36.566 10.2-5.126 21.082-.847 22.823-.099 3.906 1.602 73.201 30.032 88.175 37.184C232.882 46.94 237 60.182 237 66.845c0 30.164-5.208 58.354-15.48 83.788a194.101 194.101 0 0 1-34.759 56.19c-28.374 32.03-56.757 43.384-57.031 43.484a30.917 30.917 0 0 1-10.547 1.69Zm-6.675-16.584c2.461.553 8.126 1.383 11.819.032 4.69-1.716 28.446-14.073 50.645-39.131 30.671-34.621 46.233-78.144 46.256-129.358-.055-1.038-.789-8.438-10.559-13.104-14.685-7.014-86.711-36.556-87.437-36.854l-.199-.085c-1.509-.634-6.313-1.97-9.624-.23l-.663.31c-.803.33-80.373 33.112-88.86 36.659-5.936 2.481-8.05 8.627-8.05 13.552 0 .36-.01.884-.023 1.56-.678 35.043 7.406 121.272 96.695 166.649Z" fill="#0D2860"/><path d="M109.764 9.757s-80.207 33.055-88.8 36.647c-8.594 3.593-12.89 12.216-12.89 20.84 0 8.623-6.446 121.142 101.69 175.545 0 0 9.814 2.725 17.26 0C134.47 240.064 229 194.074 229 66.884c0 0 0-12.934-15.039-20.12-15.039-7.186-87.749-37.007-87.749-37.007s-8.929-3.953-16.448 0Z" fill="#0290A1"/><path opacity=".1" d="M118 36v176S37.29 172.988 38.005 70.426L118 36Z" fill="#000"/><path d="m58.71 64.91.433-2.546h10.113l-.432 2.545h-3.5L63.824 74h-3.113l1.5-9.09h-3.5ZM69.794 74l1.932-11.636h8.387l-.432 2.545h-5.228l-.318 2h4.796l-.432 2.545h-4.796l-.318 2h5.205L78.157 74h-8.364Zm14.256 0H80.64l5.773-11.636h4.318L92.641 74h-3.41l-1.136-8.432h-.091L84.049 74Zm.137-4.59h6.409l-.41 2.363h-6.409l.41-2.364Zm12.787-7.046h3.931l1.614 6.59h.136l3.796-6.59h3.932L108.45 74h-3.091l1.114-6.727h-.091l-3.682 6.636h-1.864l-1.477-6.682h-.09L98.131 74H95.04l1.932-11.636Zm19.903 2.545.432-2.545h10.114l-.432 2.545h-3.5L121.99 74h-3.114l1.5-9.09h-3.5ZM127.959 74l1.932-11.636h8.386l-.432 2.545h-5.227l-.318 2h4.795l-.431 2.545h-4.796l-.318 2h5.204L136.323 74h-8.364Zm14.256 0h-3.409l5.772-11.636h4.319L150.806 74h-3.409l-1.137-8.432h-.091L142.215 74Zm.136-4.59h6.409l-.409 2.363h-6.409l.409-2.364Zm22.365-2.683h-3.159a2.246 2.246 0 0 0-.045-.727 1.367 1.367 0 0 0-.273-.557 1.216 1.216 0 0 0-.506-.364 1.998 1.998 0 0 0-.744-.124 2.71 2.71 0 0 0-1.483.414c-.435.273-.797.665-1.085 1.177-.288.507-.492 1.113-.614 1.818-.106.681-.11 1.248-.011 1.698.102.451.301.788.597 1.012.299.223.687.335 1.164.335.319 0 .61-.038.875-.114.269-.075.508-.183.716-.323a2.248 2.248 0 0 0 .887-1.176h3.181a5.487 5.487 0 0 1-.647 1.51 6.086 6.086 0 0 1-1.205 1.416 6.01 6.01 0 0 1-1.738 1.04c-.667.264-1.417.397-2.25.397-1.091 0-2.033-.239-2.824-.716-.788-.477-1.36-1.174-1.716-2.09-.353-.917-.423-2.035-.21-3.353.212-1.273.63-2.339 1.255-3.199.625-.86 1.385-1.507 2.279-1.943a6.424 6.424 0 0 1 2.852-.653c.761 0 1.443.1 2.045.3.606.201 1.116.495 1.529.881.416.383.723.854.92 1.415.197.56.267 1.203.21 1.926Zm1.52 7.273 1.932-11.636h3.159l-.75 4.545h4.182l.75-4.545h3.159L176.736 74h-3.159l.75-4.546h-4.181l-.75 4.546h-3.16ZM83.249 90.727h-3.16a2.254 2.254 0 0 0-.045-.727 1.37 1.37 0 0 0-.273-.557 1.218 1.218 0 0 0-.505-.364 2.002 2.002 0 0 0-.745-.124c-.553 0-1.047.138-1.483.414-.435.273-.797.665-1.085 1.177-.288.507-.492 1.113-.614 1.818-.105.681-.11 1.248-.01 1.698.101.451.3.788.596 1.012.299.223.687.335 1.165.335.318 0 .61-.038.874-.114.27-.075.508-.183.716-.323a2.24 2.24 0 0 0 .887-1.176h3.182a5.478 5.478 0 0 1-.648 1.51c-.31.512-.712.984-1.205 1.416a6.008 6.008 0 0 1-1.738 1.04c-.667.264-1.417.397-2.25.397-1.091 0-2.032-.239-2.824-.716-.788-.477-1.36-1.174-1.716-2.09-.352-.917-.422-2.035-.21-3.353.212-1.273.63-2.339 1.255-3.199.625-.86 1.385-1.507 2.279-1.943a6.426 6.426 0 0 1 2.852-.654c.761 0 1.443.1 2.046.302.606.2 1.115.494 1.528.88.417.383.723.855.92 1.415.197.56.267 1.203.21 1.926ZM84.769 98 86.7 86.364h8.387l-.432 2.545h-5.227l-.318 2h4.795l-.432 2.545h-4.795l-.318 2h5.204L93.132 98H84.77Zm11.233 0 1.932-11.636h5.022c.864 0 1.593.157 2.188.471a2.772 2.772 0 0 1 1.284 1.358c.261.591.324 1.3.187 2.125-.136.834-.437 1.536-.903 2.108-.462.568-1.051 1-1.767 1.296-.712.291-1.511.437-2.398.437h-3l.41-2.455h2.363c.371 0 .697-.045.977-.136.281-.094.508-.242.682-.443.174-.204.288-.474.341-.807.053-.333.026-.604-.08-.812a.962.962 0 0 0-.528-.466c-.246-.103-.551-.154-.915-.154h-1.113L99.161 98H96Zm7.704-5.34 2.023 5.34h-3.432l-1.954-5.34h3.363Zm5.601-3.75.432-2.546h10.114l-.432 2.545h-3.5l-1.5 9.091h-3.114l1.5-9.09h-3.5Zm16.174-2.546L123.549 98h-3.159l1.932-11.636h3.159ZM126.326 98l1.932-11.636h8.182l-.432 2.545h-5.023l-.318 2h4.523l-.432 2.545h-4.523l-.75 4.546h-3.159Zm15.715-11.636L140.109 98h-3.159l1.932-11.636h3.159ZM142.886 98l1.932-11.636h8.386l-.431 2.545h-5.228l-.318 2h4.796l-.432 2.545h-4.796l-.318 2h5.205L151.25 98h-8.364Zm15.779 0h-4.546l1.932-11.636h4.364c1.197 0 2.197.24 3 .721a3.962 3.962 0 0 1 1.71 2.063c.337.894.403 1.958.199 3.193-.197 1.19-.597 2.206-1.199 3.051a5.9 5.9 0 0 1-2.295 1.938c-.929.447-1.983.67-3.165.67Zm-.943-2.682h1.147c.576 0 1.089-.1 1.54-.301.455-.204.833-.545 1.136-1.023.307-.48.529-1.138.665-1.971.129-.788.125-1.396-.011-1.824-.137-.432-.396-.731-.779-.898-.382-.17-.876-.255-1.483-.255h-1.17l-1.045 6.272ZM109.709 188 84 155.146l14.951-11.556 12.174 15.555L152.248 116 166 128.949 109.709 188Z" fill="#fff"/></svg>