<svg width="148" height="132" xmlns="http://www.w3.org/2000/svg"><g fill="#0D2860" fill-rule="evenodd"><path d="M74.184 2.142c19.508-5.51 39.038.43 49.187 8.54 7.68 6.13 14.56 17 15.89 23.17 1.33 6.17 1.1 10.59.22 16.55a20.063 20.063 0 0 0 .347 8.51 20.064 20.064 0 0 0 3.843 7.6c3.76 4.64 6.18 7.29 2.43 9.93-3.75 2.64-7.06 3.09-6 5.3 1.06 2.21 1.54 3.15.75 4.52a9.634 9.634 0 0 1-1.37 2s2.16 2.94 1 4.5c-1.16 1.56-3.52 0-3.91 3.33-.39 3.33 1.37 7.43-2.74 9.78-4.11 2.35-14.47 0-18.58-1-4.11-1-6.28 17.24-10 27.003 0 0-17.266.241-31.065-6.579-13.8 6.82-31.065 6.58-31.065 6.58-3.72-9.764-5.89-28.004-10-27.004s-14.47 3.35-18.58 1c-4.11-2.35-2.35-6.45-2.74-9.78-.39-3.33-2.76-1.77-3.91-3.33-1.15-1.56 1-4.5 1-4.5-.54-.606-1-1.278-1.37-2-.78-1.37-.31-2.31.75-4.52 1.06-2.21-2.25-2.66-6-5.3-3.75-2.64-1.32-5.29 2.43-9.93a20.08 20.08 0 0 0 4.19-16.11c-.88-5.96-1.11-10.38.22-16.55s8.21-17.04 15.89-23.17c10.15-8.11 29.67-14.05 49.183-8.54Zm.677-.05s-62.48 9-17.5 94.29l.67 11s3.22 14.49 16.61 18c0 0 13.72-4.42 17.17-18l.49-11.32s44.43-76.63-17.44-94v.03Z"/><path d="m60.6 100.722.06.06a.88.88 0 0 1-.57-.28 3.258 3.258 0 0 1 0-3.2 1.002 1.002 0 0 1 .72-.29c2.81-.14 5.92-.19 10.09-.19h15.71c.117-.015.234-.015.35 0 .433.084.847.247 1.22.48.041.025.075.06.1.1a2.912 2.912 0 0 1 0 3.06.886.886 0 0 1-.55.26c-2.32.31-4.66.447-7 .41H67.6c-2.34.038-4.68-.099-7-.41Zm-.46 6.12v.04c-.26-.55-.92-2.79.54-3.55.152-.081.32-.125.49-.13 2.75-.14 5.75-.2 9.75-.2h15.44c.487.047.948.243 1.32.56 1.04.98.33 2.89.18 3.26a.852.852 0 0 1-.78.39 406.189 406.189 0 0 1-26.17 0 .895.895 0 0 1-.77-.37Zm24.48 2.36.04.05c.373.068.706.276.93.58.68.99.18 2.93 0 3.4a.665.665 0 0 1-.5.37 29.081 29.081 0 0 1-5.78.44H68.67a29.18 29.18 0 0 1-5.79-.44.625.625 0 0 1-.46-.31 4.74 4.74 0 0 1 0-3.55.734.734 0 0 1 .59-.33c2.35-.15 4.9-.21 8.35-.21h13.06a.744.744 0 0 1 .2 0Zm-4.85 6.73a.622.622 0 0 1 .6.78c-.69 2.7-3.64 3.91-6.24 3.91s-5.54-1.21-6.24-3.91a.61.61 0 0 1 .333-.717.648.648 0 0 1 .278-.063h11.27Z" fill-rule="nonzero"/><path d="M85.49 30.802a22.51 22.51 0 1 1-30.41 9.42 22.52 22.52 0 0 1 30.41-9.42Zm-8.33 8.98H59.8v4.68h5.72v15.08h5.89v-15.08h5.75v-4.68Zm13.55 6.5H73.35v4.68h5.72v15.08h5.89v-15.08h5.75v-4.68Z"/></g></svg>
