<svg width="149" height="162" viewBox="0 0 149 162" fill="none" xmlns="http://www.w3.org/2000/svg">
<path fill-rule="evenodd" clip-rule="evenodd" d="M58.2806 122.392C59.3706 98.692 48.2806 92.392 44.9106 74.922C41.5406 57.452 42.7606 31.402 65.0506 20.612C87.3406 9.82203 111.631 16.302 123.371 25.682C131.051 31.812 137.931 42.682 139.261 48.852C140.591 55.022 140.361 59.442 139.481 65.402C138.986 68.2308 139.105 71.1326 139.828 73.9117C140.55 76.6908 141.861 79.2825 143.671 81.512C147.431 86.152 149.851 88.802 146.101 91.442C142.351 94.082 139.041 94.532 140.101 96.742C141.161 98.952 141.641 99.892 140.851 101.262C140.48 101.984 140.02 102.656 139.481 103.262C139.481 103.262 141.641 106.202 140.481 107.762C139.321 109.322 136.961 107.762 136.571 111.092C136.181 114.422 137.941 118.522 133.831 120.872C129.721 123.222 119.361 120.872 115.251 119.872C111.141 118.872 108.971 137.112 105.251 146.872C105.251 146.872 64.8206 147.442 58.2506 122.402" fill="#0D2860"/>
<path fill-rule="evenodd" clip-rule="evenodd" d="M90.0906 122.392C89.0106 98.692 100.091 92.392 103.461 74.922C106.831 57.452 105.621 31.402 83.3206 20.612C61.0206 9.82203 36.7406 16.302 25.0006 25.682C17.3206 31.812 10.4406 42.682 9.11059 48.852C7.78059 55.022 8.01059 59.442 8.89059 65.402C9.38471 68.2308 9.26638 71.1326 8.54357 73.9117C7.82076 76.6908 6.5103 79.2825 4.7006 81.512C0.950598 86.152 -1.4794 88.802 2.2706 91.442C6.0206 94.082 9.3306 94.532 8.2706 96.742C7.2106 98.952 6.7406 99.892 7.5206 101.262C7.89119 101.984 8.3515 102.656 8.89059 103.262C8.89059 103.262 6.74059 106.202 7.89059 107.762C9.04059 109.322 11.4106 107.762 11.8006 111.092C12.1906 114.422 10.4306 118.522 14.5406 120.872C18.6506 123.222 29.0106 120.872 33.1206 119.872C37.2306 118.872 39.4006 137.112 43.1206 146.872C43.1206 146.872 83.5506 147.442 90.1206 122.402" fill="#9EB934"/>
<path fill-rule="evenodd" clip-rule="evenodd" d="M74.8606 17.092C74.8606 17.092 12.3806 26.092 57.3606 111.382L58.0306 122.382C58.0306 122.382 61.2506 136.872 74.6406 140.382C74.6406 140.382 88.3606 135.962 91.8106 122.382L92.3006 111.062C92.3006 111.062 136.731 34.432 74.8606 17.062" fill="white"/>
<path d="M60.6006 115.722C62.9205 116.033 65.2603 116.17 67.6006 116.132H70.8606C71.9506 116.132 73.0706 116.132 74.1606 116.132C75.2506 116.132 76.3806 116.132 77.4606 116.132H80.7306C83.0709 116.169 85.4107 116.032 87.7306 115.722C87.9388 115.703 88.1335 115.611 88.2806 115.462C88.5648 115.002 88.7153 114.472 88.7153 113.932C88.7153 113.392 88.5648 112.862 88.2806 112.402C88.2552 112.362 88.221 112.327 88.1806 112.302C87.8067 112.069 87.3932 111.906 86.9606 111.822C86.8445 111.807 86.7268 111.807 86.6106 111.822C85.3806 111.822 84.0606 111.822 82.6106 111.822H76.7606H70.9006C66.7306 111.822 63.6206 111.872 60.8106 112.012C60.6773 112.01 60.545 112.035 60.4213 112.084C60.2977 112.134 60.1852 112.208 60.0906 112.302C59.8155 112.79 59.671 113.341 59.671 113.902C59.671 114.463 59.8155 115.014 60.0906 115.502C60.2391 115.663 60.4424 115.763 60.6606 115.782" fill="#9EB934"/>
<path d="M60.1406 121.842C60.2282 121.963 60.3445 122.06 60.4789 122.124C60.6133 122.189 60.7617 122.219 60.9106 122.212C64.9106 122.342 69.4006 122.422 74.0006 122.422C78.6006 122.422 83.1206 122.342 87.0806 122.212C87.2336 122.222 87.3866 122.192 87.5237 122.123C87.6608 122.055 87.7772 121.951 87.8606 121.822C88.0106 121.452 88.7206 119.542 87.6806 118.562C87.3083 118.245 86.8475 118.049 86.3606 118.002H86.1706C84.9806 118.002 83.7006 118.002 82.2606 118.002H76.6006H70.9206C66.9206 118.002 63.9206 118.062 61.1706 118.202C60.9994 118.207 60.8317 118.251 60.6806 118.332C59.2206 119.092 59.8806 121.332 60.1406 121.882" fill="#9EB934"/>
<path d="M84.6206 124.202C84.5542 124.193 84.4869 124.193 84.4206 124.202C83.4206 124.202 82.3006 124.202 81.0706 124.202C79.4706 124.202 77.8206 124.202 76.2206 124.202H71.3606C67.9106 124.202 65.3606 124.262 63.0106 124.412C62.8931 124.416 62.7783 124.448 62.6757 124.506C62.5731 124.563 62.4856 124.644 62.4206 124.742C61.9607 125.881 61.9607 127.153 62.4206 128.292C62.4685 128.375 62.5349 128.447 62.6146 128.5C62.6944 128.554 62.7853 128.589 62.8806 128.602C64.7911 128.941 66.7307 129.088 68.6706 129.042H71.3106C72.1906 129.042 73.1006 129.042 73.9906 129.042C74.8806 129.042 75.7806 129.042 76.6606 129.042H79.3106C81.2471 129.088 83.1834 128.941 85.0906 128.602C85.1979 128.586 85.2997 128.544 85.3869 128.48C85.4741 128.415 85.5441 128.33 85.5906 128.232C85.7706 127.762 86.2706 125.822 85.5906 124.832C85.3655 124.528 85.033 124.32 84.6606 124.252" fill="#9EB934"/>
<path d="M79.7706 130.932H68.5006C68.4046 130.932 68.3098 130.954 68.2233 130.995C68.1367 131.037 68.0606 131.097 68.0006 131.172C67.9412 131.247 67.9002 131.335 67.8811 131.429C67.862 131.523 67.8653 131.62 67.8906 131.712C68.5906 134.412 71.5306 135.622 74.1306 135.622C76.7306 135.622 79.6806 134.412 80.3706 131.712C80.3951 131.62 80.3982 131.524 80.3796 131.43C80.3609 131.337 80.321 131.249 80.263 131.174C80.205 131.099 80.1304 131.038 80.045 130.996C79.9596 130.954 79.8657 130.932 79.7706 130.932Z" fill="#9EB934"/>
<path fill-rule="evenodd" clip-rule="evenodd" d="M85.4906 45.802C89.429 47.8778 92.6635 51.0748 94.785 54.9888C96.9065 58.9028 97.8197 63.3579 97.4092 67.7909C96.9988 72.2239 95.283 76.4356 92.4789 79.8935C89.6748 83.3514 85.9083 85.9002 81.6557 87.2175C77.4031 88.5348 72.8554 88.5615 68.5876 87.2943C64.3198 86.027 60.5237 83.5227 57.6791 80.098C54.8346 76.6733 53.0695 72.482 52.6069 68.0541C52.1444 63.6263 53.0052 59.1607 55.0806 55.222C57.8658 49.942 62.6334 45.9838 68.3357 44.2174C74.038 42.451 80.2084 43.021 85.4906 45.802Z" fill="#0D2860"/>
<path d="M77.1606 54.782V59.462H71.4106V74.542H65.5206V59.462H59.8006V54.782H77.1606Z" fill="white"/>
<path d="M90.7106 61.282V65.962H84.9606V81.042H79.0706V65.962H73.3506V61.282H90.7106Z" fill="white"/>
</svg>
