<svg width="215" height="40" viewBox="0 0 215 40" fill="none" xmlns="http://www.w3.org/2000/svg">
<path fill-rule="evenodd" clip-rule="evenodd" d="M14.4197 30.2875C14.6894 24.4226 11.9456 22.8636 11.1118 18.5404C10.2779 14.2172 10.5798 7.77084 16.0948 5.10071C21.6098 2.43059 27.6196 4.03415 30.5243 6.35535C32.4245 7.87229 34.1267 10.5622 34.4558 12.0891C34.7848 13.6159 34.7279 14.7097 34.5102 16.1846C34.3879 16.8846 34.4172 17.6027 34.5961 18.2904C34.7749 18.9781 35.0991 19.6195 35.5469 20.1712C36.4772 21.3194 37.0759 21.9752 36.1481 22.6285C35.2203 23.2818 34.4013 23.3932 34.6636 23.9401C34.9259 24.487 35.0446 24.7196 34.8492 25.0586C34.7575 25.2372 34.6436 25.4035 34.5102 25.5535C34.5102 25.5535 35.0446 26.2811 34.7576 26.6671C34.4706 27.0531 33.8867 26.6671 33.7902 27.4912C33.6937 28.3152 34.1292 29.3298 33.1123 29.9113C32.0954 30.4929 29.5321 29.9113 28.5152 29.6639C27.4983 29.4164 26.9614 33.9301 26.041 36.3454C26.041 36.3454 16.0379 36.4864 14.4123 30.29" fill="#0D2860"/>
<path fill-rule="evenodd" clip-rule="evenodd" d="M22.2902 30.2875C22.023 24.4226 24.7644 22.8636 25.5982 18.5404C26.432 14.2172 26.1326 7.77084 20.6151 5.10071C15.0977 2.43059 9.09034 4.03415 6.18563 6.35535C4.28545 7.87229 2.58321 10.5622 2.25414 12.0891C1.92507 13.6159 1.98198 14.7097 2.1997 16.1846C2.32196 16.8846 2.29268 17.6027 2.11384 18.2904C1.93501 18.9781 1.61077 19.6195 1.16302 20.1712C0.235196 21.3194 -0.366034 21.9752 0.561789 22.6285C1.48961 23.2818 2.30857 23.3932 2.04631 23.9401C1.78404 24.487 1.66775 24.7196 1.86074 25.0586C1.95243 25.2372 2.06632 25.4035 2.1997 25.5535C2.1997 25.5535 1.66775 26.2811 1.95229 26.6671C2.23682 27.0531 2.8232 26.6671 2.9197 27.4912C3.01619 28.3152 2.58073 29.3298 3.59763 29.9113C4.61452 30.4929 7.17779 29.9113 8.19468 29.6639C9.21157 29.4164 9.74847 33.9301 10.6689 36.3454C10.6689 36.3454 20.672 36.4864 22.2976 30.29" fill="#9EB934"/>
<path fill-rule="evenodd" clip-rule="evenodd" d="M18.522 4.22964C18.522 4.22964 3.0632 6.45681 14.1921 27.5629L14.3579 30.285C14.3579 30.285 15.1546 33.8707 18.4675 34.7393C18.4675 34.7393 21.8621 33.6455 22.7157 30.285L22.837 27.4837C22.837 27.4837 33.8298 8.52065 18.522 4.22222" fill="white"/>
<path d="M14.9938 28.6369C15.5678 28.7138 16.1467 28.7477 16.7257 28.7384H17.5323C17.802 28.7384 18.0791 28.7384 18.3488 28.7384C18.6185 28.7384 18.8981 28.7384 19.1653 28.7384H19.9743C20.5534 28.7476 21.1323 28.7137 21.7063 28.6369C21.7578 28.6321 21.8059 28.6093 21.8423 28.5726C21.9126 28.4588 21.9499 28.3277 21.9499 28.1939C21.9499 28.0602 21.9126 27.9291 21.8423 27.8153C21.836 27.8053 21.8276 27.7969 21.8176 27.7906C21.7251 27.7329 21.6228 27.6926 21.5157 27.6718C21.487 27.668 21.4579 27.668 21.4291 27.6718C21.1248 27.6718 20.7982 27.6718 20.4395 27.6718H18.9921H17.5422C16.5105 27.6718 15.741 27.6842 15.0457 27.7188C15.0128 27.7183 14.98 27.7244 14.9494 27.7367C14.9188 27.749 14.891 27.7673 14.8676 27.7906C14.7995 27.9114 14.7638 28.0478 14.7638 28.1865C14.7638 28.3252 14.7995 28.4616 14.8676 28.5825C14.9043 28.6223 14.9546 28.647 15.0086 28.6518" fill="#9EB934"/>
<path d="M14.88 30.1514C14.9016 30.1812 14.9304 30.2052 14.9637 30.2212C14.9969 30.2372 15.0336 30.2447 15.0705 30.2429C16.0601 30.2751 17.1711 30.2949 18.3092 30.2949C19.4473 30.2949 20.5657 30.2751 21.5454 30.2429C21.5833 30.2455 21.6211 30.2379 21.6551 30.221C21.689 30.204 21.7178 30.1783 21.7384 30.1464C21.7755 30.0549 21.9512 29.5822 21.6939 29.3397C21.6018 29.2612 21.4878 29.2128 21.3673 29.2011H21.3203C21.0259 29.2011 20.7092 29.2011 20.3529 29.2011H18.9525H17.5471C16.5575 29.2011 15.8152 29.216 15.1348 29.2506C15.0924 29.2518 15.051 29.2629 15.0136 29.2828C14.6523 29.4709 14.8156 30.0252 14.88 30.1613" fill="#9EB934"/>
<path d="M20.9368 30.7354C20.9204 30.7331 20.9037 30.7331 20.8873 30.7354C20.6399 30.7354 20.3628 30.7354 20.0584 30.7354C19.6626 30.7354 19.2543 30.7354 18.8585 30.7354H17.656C16.8024 30.7354 16.1715 30.7502 15.59 30.7874C15.561 30.7884 15.5326 30.7963 15.5072 30.8105C15.4818 30.8247 15.4602 30.8448 15.4441 30.869C15.3303 31.1508 15.3303 31.4657 15.4441 31.7475C15.4559 31.7681 15.4723 31.7858 15.4921 31.7991C15.5118 31.8124 15.5343 31.821 15.5579 31.8242C16.0306 31.9081 16.5105 31.9446 16.9904 31.9331H17.6436C17.8614 31.9331 18.0865 31.9331 18.3067 31.9331C18.5269 31.9331 18.7496 31.9331 18.9673 31.9331H19.623C20.1021 31.9446 20.5812 31.9081 21.0531 31.8242C21.0796 31.8203 21.1048 31.8099 21.1264 31.7939C21.148 31.778 21.1653 31.7569 21.1768 31.7327C21.2213 31.6164 21.345 31.1363 21.1768 30.8913C21.1211 30.8159 21.0388 30.7646 20.9467 30.7478" fill="#9EB934"/>
<path d="M19.7368 32.4008H16.9484C16.9246 32.4008 16.9012 32.4061 16.8798 32.4164C16.8583 32.4267 16.8395 32.4417 16.8247 32.4602C16.81 32.4788 16.7998 32.5006 16.7951 32.5238C16.7904 32.547 16.7912 32.571 16.7975 32.5938C16.9706 33.262 17.6981 33.5614 18.3414 33.5614C18.9846 33.5614 19.7145 33.262 19.8852 32.5938C19.8913 32.5711 19.8921 32.5472 19.8875 32.5242C19.8829 32.5011 19.873 32.4794 19.8586 32.4607C19.8443 32.442 19.8258 32.4269 19.8047 32.4165C19.7836 32.4062 19.7603 32.4008 19.7368 32.4008Z" fill="#9EB934"/>
<path fill-rule="evenodd" clip-rule="evenodd" d="M21.152 11.3343C22.1265 11.848 22.9267 12.6391 23.4516 13.6077C23.9765 14.5762 24.2025 15.6787 24.1009 16.7757C23.9994 17.8727 23.5749 18.915 22.8811 19.7707C22.1873 20.6264 21.2554 21.2571 20.2032 21.5831C19.151 21.9091 18.0258 21.9157 16.9699 21.6021C15.914 21.2885 14.9747 20.6688 14.2709 19.8213C13.5671 18.9738 13.1304 17.9366 13.016 16.8409C12.9015 15.7451 13.1145 14.6401 13.628 13.6654C14.3171 12.3588 15.4967 11.3793 16.9076 10.9422C18.3184 10.5051 19.8451 10.6461 21.152 11.3343" fill="#0D2860"/>
<path d="M19.091 13.5565V14.7146H17.6684V18.4464H16.2111V14.7146H14.7958V13.5565H19.091Z" fill="white"/>
<path d="M22.4436 15.165V16.3232H21.0209V20.0549H19.5636V16.3232H18.1484V15.165H22.4436Z" fill="white"/>
<path d="M45.1416 16.3325C45.0255 16.1425 44.92 15.8892 44.8144 15.5726C44.7089 15.256 44.6667 14.9077 44.6667 14.5594C44.6667 13.8945 44.8144 13.4196 45.1099 13.1346C45.4054 12.8497 45.7854 12.7019 46.2498 12.7019H57.1836C57.2997 12.8919 57.4052 13.1452 57.5107 13.4618C57.6163 13.789 57.6585 14.1267 57.6585 14.475C57.6585 15.1399 57.5107 15.6148 57.2152 15.8997C56.9197 16.1847 56.5398 16.3325 56.0754 16.3325H53.2892V28.1C53.1098 28.1528 52.8143 28.2056 52.4238 28.2478C52.0333 28.3005 51.6428 28.3217 51.2628 28.3217C50.8829 28.3217 50.5346 28.29 50.2497 28.2372C49.9542 28.1739 49.7114 28.0684 49.5109 27.9206C49.3104 27.7729 49.1626 27.5618 49.0571 27.2874C48.9515 27.013 48.9093 26.6647 48.9093 26.2214V16.3325H45.1416V16.3325Z" fill="#0D2861"/>
<path d="M64.3918 28.6176C63.4103 28.6176 62.4921 28.4803 61.6478 28.1954C60.8035 27.9104 60.0647 27.4988 59.442 26.9395C58.8088 26.3801 58.3233 25.673 57.9645 24.8287C57.6057 23.9844 57.4263 22.9818 57.4263 21.8525C57.4263 20.7338 57.6057 19.7734 57.9645 18.9608C58.3233 18.1587 58.7983 17.4938 59.3787 16.9766C59.9592 16.4595 60.6346 16.0795 61.384 15.8263C62.1333 15.5835 62.9037 15.4569 63.6953 15.4569C64.5818 15.4569 65.3839 15.5941 66.1121 15.8685C66.8403 16.1429 67.463 16.5123 67.9907 16.9872C68.5184 17.4621 68.93 18.032 69.2149 18.6969C69.5104 19.3618 69.6582 20.0795 69.6582 20.8605C69.6582 21.4409 69.4999 21.8736 69.1833 22.1797C68.8667 22.4857 68.4234 22.6863 67.8535 22.7707L61.6584 23.71C61.8483 24.2693 62.2177 24.6915 62.7876 24.9765C63.3575 25.2614 64.0119 25.3986 64.7401 25.3986C65.4261 25.3986 66.0699 25.3142 66.682 25.1348C67.2941 24.9554 67.7902 24.7443 68.1701 24.5121C68.434 24.681 68.6661 24.9237 68.8456 25.2298C69.025 25.5358 69.12 25.863 69.12 26.2007C69.12 26.9711 68.7717 27.5411 68.0646 27.9104C67.5263 28.1954 66.9247 28.3959 66.2598 28.4909C65.6055 28.5648 64.9828 28.6176 64.3918 28.6176ZM63.6953 18.6019C63.2942 18.6019 62.9459 18.6652 62.6504 18.8025C62.3549 18.9397 62.1227 19.1085 61.9328 19.3301C61.7533 19.5412 61.6161 19.784 61.5212 20.0478C61.4262 20.3116 61.3734 20.5755 61.3629 20.8499L65.6477 20.1322C65.595 19.7945 65.4155 19.4568 65.0989 19.1191C64.7718 18.7708 64.3074 18.6019 63.6953 18.6019Z" fill="#0D2861"/>
<path d="M76.7294 15.446C77.637 15.446 78.4497 15.541 79.199 15.731C79.9378 15.921 80.5815 16.2059 81.0987 16.5859C81.6264 16.9658 82.0274 17.4513 82.3124 18.0423C82.5973 18.6333 82.7345 19.3193 82.7345 20.1214V25.8311C82.7345 26.2743 82.6079 26.6332 82.3757 26.9181C82.133 27.2031 81.848 27.4353 81.5103 27.6463C80.4232 28.3112 78.8929 28.6384 76.9194 28.6384C76.0328 28.6384 75.2307 28.554 74.5236 28.3851C73.8165 28.2162 73.2044 27.9629 72.6978 27.6252C72.1912 27.2875 71.7902 26.8548 71.5158 26.3271C71.2414 25.7994 71.1042 25.1873 71.1042 24.4907C71.1042 23.3192 71.4419 22.4222 72.1279 21.7889C72.8139 21.1557 73.8798 20.7758 75.3152 20.6175L78.5974 20.2586V20.0792C78.5974 19.5832 78.3863 19.2349 77.9536 19.0238C77.5315 18.8127 76.9088 18.7072 76.1067 18.7072C75.4735 18.7072 74.8508 18.7705 74.2492 18.9077C73.6477 19.0449 73.1094 19.2138 72.6239 19.4143C72.4023 19.2666 72.2229 19.0238 72.0751 18.7178C71.9274 18.4011 71.8535 18.074 71.8535 17.7363C71.8535 17.293 71.959 16.9447 72.1701 16.6809C72.3812 16.417 72.6978 16.1954 73.1305 16.0054C73.616 15.8154 74.1859 15.6888 74.8508 15.6044C75.5157 15.4883 76.1384 15.446 76.7294 15.446ZM76.9299 25.4617C77.2149 25.4617 77.5315 25.43 77.8692 25.3772C78.2069 25.3139 78.4708 25.24 78.6291 25.1345V23.0976L76.8244 23.2454C76.3494 23.277 75.9695 23.3826 75.674 23.5514C75.3679 23.7203 75.2202 23.9736 75.2202 24.3113C75.2202 24.649 75.3468 24.9234 75.6107 25.1345C75.8745 25.3456 76.3072 25.4617 76.9299 25.4617Z" fill="#0D2861"/>
<path d="M91.1882 15.446C91.8742 15.446 92.5496 15.541 93.204 15.7416C93.8583 15.9421 94.4388 16.227 94.9242 16.6175C95.4308 16.2798 95.9902 15.9949 96.6129 15.7838C97.2355 15.5621 97.9954 15.4566 98.8819 15.4566C99.5152 15.4566 100.138 15.541 100.75 15.7099C101.362 15.8788 101.9 16.1426 102.375 16.512C102.85 16.8814 103.23 17.3563 103.515 17.9684C103.8 18.57 103.937 19.3088 103.937 20.1742V28.1951C103.768 28.2479 103.505 28.3007 103.146 28.3429C102.787 28.3956 102.417 28.4168 102.027 28.4168C101.658 28.4168 101.33 28.3956 101.035 28.3429C100.739 28.2901 100.497 28.1951 100.296 28.0368C100.096 27.8891 99.9373 27.678 99.8318 27.4141C99.7263 27.1503 99.6735 26.8126 99.6735 26.3799V20.2903C99.6735 19.7837 99.5363 19.4143 99.2513 19.1821C98.9664 18.9499 98.5864 18.8338 98.101 18.8338C97.8688 18.8338 97.6155 18.8866 97.3516 19.0027C97.0878 19.1188 96.8873 19.2243 96.7501 19.351C96.7712 19.4143 96.7712 19.4776 96.7712 19.541V19.7098V28.1951C96.5918 28.2479 96.3174 28.3007 95.9585 28.3429C95.5997 28.3956 95.2303 28.4168 94.8715 28.4168C94.5021 28.4168 94.1749 28.3956 93.8794 28.3429C93.5839 28.2901 93.3412 28.1951 93.1406 28.0368C92.9401 27.8891 92.7818 27.678 92.6763 27.4141C92.5707 27.1503 92.518 26.8126 92.518 26.3799V20.2903C92.518 19.7837 92.3596 19.4143 92.0536 19.1821C91.7475 18.9499 91.3781 18.8338 90.9349 18.8338C90.6288 18.8338 90.3755 18.8761 90.1539 18.9711C89.9323 19.066 89.7528 19.1505 89.6051 19.2349V28.174C89.4362 28.2268 89.1724 28.2796 88.8135 28.3218C88.4547 28.3746 88.0853 28.3957 87.6948 28.3957C87.3255 28.3957 86.9983 28.3746 86.7028 28.3218C86.4073 28.269 86.1645 28.174 85.964 28.0157C85.7635 27.868 85.6052 27.6569 85.4996 27.393C85.3941 27.1292 85.3413 26.7915 85.3413 26.3588V18.665C85.3413 18.2112 85.4363 17.8418 85.6263 17.5674C85.8163 17.293 86.0801 17.0397 86.4178 16.8075C86.9877 16.3959 87.6948 16.0687 88.5391 15.8154C89.3835 15.5727 90.27 15.446 91.1882 15.446Z" fill="#0D2861"/>
<path d="M105.172 16.3325C105.056 16.1425 104.95 15.8892 104.845 15.5726C104.739 15.256 104.697 14.9077 104.697 14.5594C104.697 13.8945 104.845 13.4196 105.14 13.1346C105.436 12.8497 105.816 12.7019 106.28 12.7019H117.214C117.33 12.8919 117.436 13.1452 117.541 13.4618C117.647 13.789 117.689 14.1267 117.689 14.475C117.689 15.1399 117.541 15.6148 117.246 15.8997C116.95 16.1847 116.57 16.3325 116.106 16.3325H113.32V28.1C113.14 28.1528 112.845 28.2056 112.454 28.2478C112.064 28.3005 111.673 28.3217 111.293 28.3217C110.913 28.3217 110.565 28.29 110.28 28.2372C109.985 28.1739 109.742 28.0684 109.541 27.9206C109.341 27.7729 109.193 27.5618 109.088 27.2874C108.982 27.013 108.94 26.6647 108.94 26.2214V16.3325H105.172V16.3325Z" fill="#9DB934"/>
<path d="M124.422 28.6176C123.441 28.6176 122.523 28.4803 121.678 28.1954C120.834 27.9104 120.095 27.4988 119.472 26.9395C118.839 26.3801 118.354 25.673 117.995 24.8287C117.636 23.9844 117.457 22.9818 117.457 21.8525C117.457 20.7338 117.636 19.7734 117.995 18.9608C118.354 18.1587 118.829 17.4938 119.409 16.9766C119.99 16.4595 120.665 16.0795 121.414 15.8263C122.164 15.5835 122.934 15.4569 123.715 15.4569C124.602 15.4569 125.414 15.5941 126.132 15.8685C126.86 16.1429 127.483 16.5123 128.011 16.9872C128.538 17.4621 128.95 18.032 129.235 18.6969C129.53 19.3618 129.678 20.0795 129.678 20.8605C129.678 21.4409 129.52 21.8736 129.203 22.1797C128.887 22.4857 128.443 22.6863 127.873 22.7707L121.678 23.71C121.858 24.2693 122.238 24.6915 122.808 24.9765C123.377 25.2614 124.032 25.3986 124.76 25.3986C125.446 25.3986 126.09 25.3142 126.702 25.1348C127.314 24.9554 127.81 24.7443 128.19 24.5121C128.454 24.681 128.686 24.9237 128.865 25.2298C129.045 25.5358 129.14 25.863 129.14 26.2007C129.14 26.9711 128.792 27.5411 128.084 27.9104C127.546 28.1954 126.945 28.3959 126.28 28.4909C125.636 28.5648 125.013 28.6176 124.422 28.6176ZM123.726 18.6019C123.325 18.6019 122.976 18.6652 122.691 18.8025C122.396 18.9397 122.164 19.1085 121.974 19.3301C121.794 19.5412 121.657 19.784 121.562 20.0478C121.467 20.3116 121.414 20.5755 121.404 20.8499L125.689 20.1322C125.636 19.7945 125.457 19.4568 125.14 19.1191C124.813 18.7708 124.348 18.6019 123.726 18.6019Z" fill="#9DB934"/>
<path d="M136.76 15.446C137.667 15.446 138.48 15.541 139.229 15.731C139.968 15.921 140.612 16.2059 141.129 16.5859C141.657 16.9658 142.058 17.4513 142.343 18.0423C142.628 18.6333 142.765 19.3193 142.765 20.1214V25.8311C142.765 26.2743 142.638 26.6332 142.406 26.9181C142.163 27.2031 141.878 27.4353 141.541 27.6463C140.454 28.3112 138.923 28.6384 136.95 28.6384C136.063 28.6384 135.261 28.554 134.554 28.3851C133.847 28.2162 133.235 27.9629 132.728 27.6252C132.222 27.2875 131.821 26.8548 131.546 26.3271C131.272 25.7994 131.135 25.1873 131.135 24.4907C131.135 23.3192 131.472 22.4222 132.158 21.7889C132.844 21.1557 133.91 20.7758 135.346 20.6175L138.628 20.2586V20.0792C138.628 19.5832 138.417 19.2349 137.984 19.0238C137.562 18.8127 136.939 18.7072 136.137 18.7072C135.504 18.7072 134.881 18.7705 134.28 18.9077C133.678 19.0449 133.129 19.2138 132.654 19.4143C132.433 19.2666 132.253 19.0238 132.106 18.7178C131.958 18.4011 131.884 18.074 131.884 17.7363C131.884 17.293 131.989 16.9447 132.201 16.6809C132.412 16.417 132.728 16.1954 133.161 16.0054C133.646 15.8154 134.216 15.6888 134.881 15.6044C135.546 15.4883 136.169 15.446 136.76 15.446ZM136.96 25.4617C137.245 25.4617 137.562 25.43 137.9 25.3772C138.237 25.3139 138.501 25.24 138.659 25.1345V23.0976L136.855 23.2454C136.38 23.277 136 23.3826 135.704 23.5514C135.398 23.7203 135.251 23.9736 135.251 24.3113C135.251 24.649 135.377 24.9234 135.641 25.1345C135.905 25.3456 136.338 25.4617 136.96 25.4617Z" fill="#9DB934"/>
<path d="M152.253 18.8553C151.831 18.8553 151.44 18.9186 151.06 19.0558C150.68 19.193 150.364 19.3935 150.079 19.6574C149.804 19.9212 149.583 20.2484 149.414 20.6389C149.245 21.0294 149.161 21.4832 149.161 22.0109C149.161 23.0663 149.456 23.8578 150.047 24.3855C150.638 24.9132 151.366 25.1771 152.211 25.1771C152.707 25.1771 153.15 25.1137 153.509 24.9976C153.878 24.8815 154.205 24.7549 154.49 24.6177C154.817 24.8604 155.071 25.1137 155.24 25.3987C155.408 25.6836 155.493 26.0108 155.493 26.4013C155.493 27.0979 155.166 27.6361 154.511 28.016C153.857 28.396 152.96 28.586 151.799 28.586C150.744 28.586 149.794 28.4276 148.939 28.111C148.084 27.7944 147.356 27.3617 146.744 26.7918C146.132 26.2219 145.657 25.5359 145.33 24.7444C144.992 23.9423 144.833 23.0663 144.833 22.0953C144.833 20.9766 145.013 19.9951 145.372 19.1508C145.731 18.3065 146.216 17.6205 146.839 17.0717C147.451 16.5229 148.169 16.1218 148.981 15.8474C149.794 15.573 150.649 15.4358 151.556 15.4358C152.759 15.4358 153.688 15.6575 154.332 16.1007C154.986 16.544 155.313 17.1139 155.313 17.8105C155.313 18.1271 155.24 18.4331 155.081 18.7181C154.934 19.003 154.754 19.2352 154.554 19.4463C154.269 19.3091 153.931 19.1825 153.53 19.0558C153.15 18.9186 152.717 18.8553 152.253 18.8553Z" fill="#9DB934"/>
<path d="M169.667 28.1845C169.498 28.2373 169.234 28.29 168.875 28.3322C168.516 28.385 168.147 28.4061 167.756 28.4061C167.387 28.4061 167.06 28.385 166.764 28.3322C166.469 28.2795 166.226 28.1845 166.026 28.0262C165.825 27.8784 165.667 27.6673 165.561 27.4035C165.456 27.1396 165.403 26.7914 165.403 26.3692V20.7123C165.403 20.0158 165.234 19.5303 164.886 19.2454C164.548 18.9604 164.126 18.8232 163.619 18.8232C163.282 18.8232 162.965 18.8654 162.669 18.9499C162.363 19.0343 162.121 19.1398 161.941 19.2559V28.1739C161.772 28.2267 161.509 28.2795 161.15 28.3217C160.791 28.3745 160.421 28.3956 160.031 28.3956C159.662 28.3956 159.334 28.3745 159.039 28.3217C158.743 28.2689 158.501 28.1739 158.3 28.0156C158.1 27.8679 157.941 27.6568 157.836 27.3929C157.73 27.1291 157.677 26.7808 157.677 26.3587V11.5833C157.857 11.5516 158.131 11.4988 158.49 11.446C158.849 11.3827 159.218 11.3616 159.577 11.3616C159.947 11.3616 160.274 11.3827 160.569 11.4355C160.865 11.4883 161.107 11.5832 161.308 11.7416C161.509 11.8893 161.667 12.1004 161.772 12.3642C161.878 12.6281 161.931 12.9658 161.931 13.3985V15.8998C162.152 15.8154 162.479 15.7204 162.923 15.6043C163.366 15.4987 163.851 15.4354 164.39 15.4354C166.047 15.4354 167.334 15.8576 168.263 16.7019C169.192 17.5462 169.656 18.7915 169.656 20.459V28.1845H169.667Z" fill="#9DB934"/>
<path d="M178.417 27V15.3636H181.576V19.9091H185.758V15.3636H188.917V27H185.758V22.4545H181.576V27H178.417ZM198.583 15.3636H201.742V22.8182C201.742 23.7045 201.53 24.4716 201.106 25.1193C200.685 25.7633 200.098 26.2614 199.344 26.6136C198.591 26.9621 197.716 27.1364 196.719 27.1364C195.716 27.1364 194.837 26.9621 194.083 26.6136C193.329 26.2614 192.742 25.7633 192.322 25.1193C191.905 24.4716 191.697 23.7045 191.697 22.8182V15.3636H194.856V22.5455C194.856 22.9053 194.935 23.2273 195.094 23.5114C195.253 23.7917 195.473 24.0114 195.753 24.1705C196.038 24.3295 196.36 24.4091 196.719 24.4091C197.083 24.4091 197.405 24.3295 197.685 24.1705C197.966 24.0114 198.185 23.7917 198.344 23.5114C198.503 23.2273 198.583 22.9053 198.583 22.5455V15.3636ZM204.524 27V15.3636H209.569C210.455 15.3636 211.2 15.483 211.802 15.7216C212.408 15.9602 212.864 16.2973 213.171 16.733C213.482 17.1686 213.637 17.6818 213.637 18.2727C213.637 18.7008 213.542 19.0909 213.353 19.4432C213.167 19.7955 212.906 20.0909 212.569 20.3295C212.232 20.5644 211.838 20.7273 211.387 20.8182V20.9318C211.887 20.9508 212.342 21.0777 212.751 21.3125C213.16 21.5436 213.486 21.8636 213.728 22.2727C213.971 22.678 214.092 23.1553 214.092 23.7045C214.092 24.3409 213.925 24.9072 213.592 25.4034C213.262 25.8996 212.792 26.2898 212.183 26.5739C211.573 26.858 210.846 27 210.001 27H204.524ZM207.683 24.4773H209.16C209.69 24.4773 210.088 24.3788 210.353 24.1818C210.618 23.9811 210.751 23.6856 210.751 23.2955C210.751 23.0227 210.688 22.7917 210.563 22.6023C210.438 22.4129 210.26 22.2689 210.029 22.1705C209.802 22.072 209.527 22.0227 209.205 22.0227H207.683V24.4773ZM207.683 20.0682H208.978C209.255 20.0682 209.499 20.0246 209.711 19.9375C209.923 19.8504 210.088 19.7254 210.205 19.5625C210.327 19.3958 210.387 19.1932 210.387 18.9545C210.387 18.5947 210.258 18.3201 210.001 18.1307C209.743 17.9375 209.417 17.8409 209.024 17.8409H207.683V20.0682Z" fill="#0D2860"/>
</svg>
