<svg  version="1.1" xmlns="http://www.w3.org/2000/svg" xmlns:xlink="http://www.w3.org/1999/xlink" x="0px" y="0px"
	 viewBox="0 0 2000 500" style="enable-background:new 0 0 2000 500;" xml:space="preserve">
<style type="text/css">
	.st0{fill:#FFFFFF;}
	.st1{fill:#A0BC3D;}
	.st2{fill:#252F61;}
</style>
<g id="Layer_2">
	<rect x="144.39" y="25.7" class="st0" width="196.96" height="373.57"/>
</g>
<g id="Layer_1">
	<g>
		<g>
			<path class="st1" d="M46.04,285.7c-5.79-5.73-6.73-12-2.2-18.9c2.11-3.22,0.75-5.73-2.2-7.52c-4.83-2.94-9.87-5.57-14.58-8.69
				c-7.69-5.09-8.61-9.84-3.58-17.66c1.98-3.07,4.14-6.08,6.57-8.8c14.44-16.12,19.71-34.9,15.8-56.04
				c-6.77-36.62,4.44-67.7,27.3-96.07c24.02-29.81,55.67-45.16,92.37-51.91c24.09-4.43,48.07-3.71,71.89,2
				c1.7,0.41,3.37,0.91,6.33,1.71c-2.39,0.75-3.57,1.15-4.76,1.48c-32.29,8.95-59.16,25.61-77.17,54.65
				c-11.33,18.27-16.45,38.48-17.59,59.74c-1.74,32.46,4.39,63.84,15.66,93.98c9.01,24.11,20.28,47.38,30.3,71.13
				c1.83,4.33,2.99,9.08,3.57,13.75c1.19,9.73,0.16,20.01,2.93,29.2c7.16,23.76,21.44,41.92,45.94,50.29
				c0.25,0.09,0.45,0.33,2.18,1.64c-13.44,4.3-25.5,9.4-38.07,11.88c-17.26,3.4-34.91,4.76-52.38,7.11c-3.61,0.49-5-1.11-5.85-4.34
				c-4.74-17.86-9.48-35.71-14.51-53.49c-1.76-6.21-3.97-12.36-6.63-18.24c-2.8-6.19-4.87-6.74-11.47-5.3
				c-14.33,3.13-28.66,6.38-43.5,4.72c-12.05-1.35-17.63-7.78-17.51-19.99c0.04-4.16,0.64-8.44-0.13-12.45
				c-0.48-2.49-2.55-5.7-4.75-6.67c-8.94-3.95-10-6.23-5.3-14.85C45.08,287.35,45.5,286.65,46.04,285.7z"/>
			<path class="st2" d="M246.68,399.84c8.23-5.09,16.56-9.38,23.84-15.02c6.1-4.73,11.5-10.64,16.26-16.76
				c8.43-10.84,12.66-23.43,11.78-37.26c-0.9-14.11,3.57-26.34,9.86-38.82c16.84-33.41,29.09-68.55,34.99-105.66
				c3.98-25.04,4.62-50.1-1.94-74.85c-11.1-41.86-39.36-67.46-78.72-82.38c-2.64-1-5.32-1.93-7.99-2.84
				c-2.5-0.86-5.02-1.65-7.53-2.48c-0.03-0.49-0.07-0.98-0.1-1.47c11.78-1.63,23.51-4.15,35.34-4.73
				c36.13-1.75,70.36,5.59,101.09,25.2c26.52,16.92,44.68,41.26,56.11,70.26c6.52,16.56,6.59,34.27,3.74,51.76
				c-3,18.41-1.77,35.89,9.48,51.56c3.01,4.19,6.4,8.1,9.52,12.21c9.29,12.27,8.33,17.12-4.87,24.84c-3.3,1.93-6.71,3.68-9.98,5.66
				c-3.31,2.01-4.64,4.68-2.28,8.34c3.66,5.67,3.81,11.11-0.76,16.51c-0.74,0.87-0.52,2.87-0.22,4.22c0.35,1.58,1.44,2.99,1.94,4.56
				c1.62,5.14,0.18,8.22-5.08,9.28c-5.56,1.12-7.37,4.51-7.32,9.59c0.04,3.83,0.19,7.66,0.18,11.49
				c-0.01,11.02-5.56,17.41-16.44,18.9c-13.63,1.86-26.86-0.98-40.11-3.54c-0.82-0.16-1.62-0.37-2.44-0.55
				c-9.56-2.11-11.74-1.63-14.89,7.88c-5.01,15.12-8.87,30.62-13.24,45.95c-2.23,7.84-4.38,15.7-6.88,23.45
				c-0.47,1.44-2.5,3.43-3.76,3.4C305.22,417.72,275.02,412.75,246.68,399.84z"/>
			<path class="st2" d="M1056.03,260.79c0,15.5-0.09,31,0.07,46.49c0.04,3.45-0.82,5.39-4.53,5.55c-8.29,0.36-16.6,1.43-24.87,1.11
				c-12.82-0.49-19.33-7.6-19.5-20.56c-0.2-14.66-0.06-29.33-0.06-43.99c0-15.16,0.16-30.33-0.06-45.49
				c-0.12-8.14,2.84-14.53,9.09-19.58c14.71-11.89,31.95-16.89,50.4-18.17c17.18-1.19,33.53,1.56,48.15,11.56
				c1.08,0.74,3.73,0.12,5.14-0.71c20.24-12.01,41.77-14.08,64.1-7.88c21.39,5.93,34.71,22.49,35.31,45.61
				c0.81,31.31,0.36,62.65,0.24,93.98c0,1.31-2,3.68-3.2,3.76c-9.76,0.69-19.58,1.62-29.32,1.14c-8.5-0.42-13.81-6.15-15.51-14.58
				c-0.62-3.08-0.86-6.28-0.87-9.42c-0.07-22-0.06-43.99-0.04-65.99c0.01-6.74-0.58-13.24-7.74-16.48
				c-8.13-3.68-16.01-2.47-23.24,2.35c-1.2,0.8-1.66,3.42-1.67,5.2c-0.1,30.66-0.15,61.32,0.03,91.99c0.03,4.23-1.14,6.16-5.41,6.31
				c-7.96,0.28-15.95,1.36-23.88,1c-13.21-0.59-19.58-7.5-19.78-20.79c-0.23-15.33-0.08-30.66-0.09-45.99
				c-0.01-7.67,0.01-15.33-0.01-23c-0.03-14.95-9.92-22.34-24.48-18.31c-7.78,2.15-8.32,2.87-8.32,10.93
				C1056.03,231.46,1056.03,246.13,1056.03,260.79z"/>
			<path class="st1" d="M1881.14,170.78c2.42-0.63,3.96-1.03,5.5-1.44c20.91-5.56,41.27-5.13,60.33,6.28
				c13.48,8.07,20.99,21.08,21.52,35.93c1.17,33.27,0.37,66.61,0.37,100.39c-11.62,2.57-23.29,3.54-34.97,0.97
				c-7.47-1.65-11.47-7.13-12.66-14.49c-0.61-3.76-0.72-7.63-0.73-11.45c-0.08-20.33,0.08-40.66-0.13-60.98
				c-0.16-15.05-8.18-22.08-23.25-20.93c-0.66,0.05-1.33,0.12-1.99,0.2c-12.97,1.72-13.98,2.86-13.98,15.64
				c0,28.66-0.08,57.32,0.09,85.97c0.02,4.01-1.16,5.88-5.18,6.01c-8.63,0.27-17.28,1.2-25.88,0.83
				c-10.24-0.45-16.43-7.1-17.37-17.25c-0.25-2.65-0.37-5.32-0.37-7.98c-0.02-53.65,0.03-107.3-0.11-160.95
				c-0.01-4.37,1.02-6.45,5.68-6.53c8.29-0.15,16.59-1.28,24.85-0.93c11.01,0.46,17.44,7.2,17.99,18.21
				c0.44,8.81,0.22,17.65,0.29,26.48C1881.15,166.5,1881.14,168.26,1881.14,170.78z"/>
			<path class="st2" d="M977.69,250.51c0,11-0.11,22,0.04,33c0.09,7.19-2.59,12.83-8.06,17.46c-9.09,7.68-19.79,11.91-31.28,13.4
				c-19.7,2.56-39.55,3.72-59.02-1.7c-29.11-8.11-42.56-35.48-31.12-62.68c6.21-14.75,18.94-20.7,33.31-23.27
				c14.57-2.6,29.37-4.04,44.11-5.47c4.48-0.44,4.86-2.32,4.12-5.74c-1.16-5.34-4.93-8.15-9.76-9.74
				c-11.42-3.76-23.08-3.03-34.62-1.02c-6.69,1.17-13.31,3.13-19.7,5.44c-3.24,1.17-4.9,0.37-6.81-1.9
				c-10.86-12.93-6.23-30.54,9.76-36.48c13.5-5.01,27.62-5.87,41.84-5.83c11.74,0.03,23.27,1.41,34.33,5.61
				c21.58,8.19,32.56,23.82,32.83,46.95C977.79,229.18,977.68,239.84,977.69,250.51z M930.45,253.24
				c-10.35,1.37-19.95,2.1-29.3,4.05c-6.75,1.4-9.37,5.38-9.23,10.65c0.15,5.6,3.62,9.89,10.06,11.35c8.6,1.95,17.2,1.19,25.55-1.5
				c1.21-0.39,2.75-2.19,2.8-3.38C930.59,267.78,930.45,261.16,930.45,253.24z"/>
			<path class="st1" d="M1662.55,249.67c0,10.83-0.18,21.67,0.06,32.5c0.18,8.34-2.94,14.75-9.49,19.86
				c-8.94,6.97-19.21,10.86-30.19,12.32c-19.55,2.61-39.23,3.67-58.51-1.75c-16.31-4.59-28.88-13.76-33.36-31.14
				c-2.6-10.09-2.12-20.19,1.53-29.99c5.82-15.64,18.9-21.99,33.86-24.67c14.57-2.61,29.36-4.02,44.1-5.49
				c4.31-0.43,5.04-2.11,4.26-5.69c-1.15-5.33-4.84-8.24-9.66-9.85c-11.57-3.86-23.38-3.21-35.09-1.05
				c-6.68,1.23-13.28,3.2-19.71,5.43c-3,1.04-4.61,0.3-6.43-1.78c-10.17-11.64-7.23-29.24,6.98-35.03
				c8.93-3.64,18.87-5.38,28.52-6.56c15.28-1.86,30.65-1.26,45.56,3.25c25.08,7.59,37.25,23.91,37.54,50.15
				C1662.64,230.01,1662.55,239.84,1662.55,249.67z M1615.51,265.82c0-0.83,0.01-1.66,0-2.49c-0.18-11.21,1.61-9.95-9.84-8.91
				c-7.23,0.65-14.59,1.44-21.52,3.46c-6.91,2.01-9.23,8.25-6.49,14.32c2.29,5.06,6.67,7.38,11.91,7.77
				c4.61,0.34,9.31,0.33,13.91-0.07c11.59-1.01,12.03-1.62,12.03-13.08C1615.51,266.49,1615.51,266.16,1615.51,265.82z"/>
			<path class="st2" d="M737.37,260.69c2.93,7.98,8.36,12.48,15.41,15.26c11.42,4.51,23.25,4.45,34.93,1.86
				c7.23-1.61,14.09-4.86,21.2-7.12c1.43-0.45,3.68-0.35,4.77,0.49c12.29,9.5,11.31,28.62-2.21,36.26
				c-5.69,3.22-12.17,5.92-18.58,6.82c-19.18,2.71-38.49,3.99-57.28-2.74c-27.61-9.89-42.23-30.22-46.22-58.62
				c-1.99-14.15-1.47-28.36,3.45-41.96c10.13-27.98,31.06-42.11,59.95-44.7c22.35-2,42.8,3.23,59.07,19.8
				c11.57,11.78,16.71,26.29,16.51,42.64c-0.13,10.92-6.35,18.45-17.59,20.43c-18.37,3.23-36.85,5.81-55.28,8.68
				C749.62,258.71,743.75,259.67,737.37,260.69z M782.21,219.52c-4.01-13.89-15.58-20-29.66-16.38
				c-11.1,2.85-19.85,14.7-17.67,24.28C750.52,224.81,766.17,222.2,782.21,219.52z"/>
			<path class="st1" d="M1422.05,260.62c3.6,9.44,10.33,14.18,18.84,16.52c17.68,4.87,34.75,2.23,50.98-5.63
				c4.1-1.98,6.26-1.15,8.93,1.79c10.2,11.2,8.15,27.21-5.09,34.43c-5.61,3.06-11.93,5.64-18.2,6.51
				c-22.26,3.1-44.54,4.24-65.55-6.34c-22.79-11.48-34.4-30.7-37.72-55.37c-1.89-14.02-1.13-27.97,3.45-41.48
				c8.76-25.83,31.83-43.04,59.96-44.85c23.39-1.5,44.45,3.83,60.76,21.82c10.95,12.08,15.59,26.61,14.61,42.8
				c-0.58,9.62-6.87,16.37-17.61,18.24c-18.54,3.22-37.18,5.86-55.77,8.75C1433.97,258.69,1428.3,259.62,1422.05,260.62z
				 M1467.04,219.67c-3.1-13.43-13.69-19.45-28.3-16.84c-11.69,2.09-20.75,13.41-19.43,24.82
				C1435.12,225,1450.91,222.36,1467.04,219.67z"/>
			<path class="st2" d="M641.69,176.26c0,2.26,0,3.89,0,5.52c0,41.33-0.08,82.65,0.12,123.98c0.02,4.32-1.33,6.22-5.37,6.33
				c-9.61,0.27-19.28,1.17-28.83,0.46c-9.33-0.7-14.21-6.25-15.62-15.49c-0.57-3.77-0.76-7.62-0.77-11.44
				c-0.06-34.33-0.03-68.65-0.03-102.98c0-1.81,0-3.62,0-5.98c-1.87-0.12-3.44-0.31-5.02-0.32c-11.33-0.02-22.66-0.11-33.99,0.06
				c-2.98,0.05-4.52-0.98-5.67-3.66c-3.88-8.99-3.1-18.38-1.79-27.54c0.77-5.36,5.36-8.74,10.76-10.02
				c2.72-0.64,5.61-0.83,8.42-0.84c39.16-0.05,78.32,0.01,117.48-0.13c3.61-0.01,5.39,1.22,6.68,4.47
				c2.85,7.14,3.92,14.41,2.95,22.03c-1.21,9.42-7.08,15.22-16.53,15.48C663.84,176.48,653.18,176.26,641.69,176.26z"/>
			<path class="st1" d="M1326.47,176.18c0,2.4,0,4.2,0,5.99c0,41.15-0.07,82.29,0.11,123.44c0.02,4.26-1.27,6.25-5.38,6.38
				c-9.28,0.31-18.6,1.25-27.82,0.65c-9.94-0.65-14.91-6.03-16.45-15.78c-0.54-3.43-0.7-6.96-0.7-10.44
				c-0.05-34.98-0.09-69.97,0.06-104.95c0.02-4.13-1.09-5.48-5.3-5.38c-11.15,0.27-22.32-0.04-33.48,0.18
				c-3.43,0.07-5.59-1.09-6.22-4.28c-1.25-6.31-3.01-12.66-3.08-19.02c-0.13-11.86,6.87-18.45,18.8-18.55
				c17.32-0.15,34.65-0.05,51.97-0.05c22.32,0,44.65,0.09,66.97-0.09c3.83-0.03,5.67,1.4,7.05,4.77c2.93,7.15,3.68,14.5,2.78,22.06
				c-1.08,8.99-7.34,14.79-16.43,14.99c-9.16,0.2-18.32,0.08-27.48,0.09C1330.25,176.18,1328.63,176.18,1326.47,176.18z"/>
			<path class="st2" d="M178.62,171.63c0-37.8,30.49-68.38,68.25-68.46c37.81-0.08,68.31,30.71,68.26,68.89
				c-0.04,37.77-30.53,68.1-68.44,68.07C208.91,240.1,178.63,209.63,178.62,171.63z M218.1,152.82c0,15.39,0,30.42,0,45.49
				c6.23,0,11.94,0,17.99,0c0-15.27,0-30.19,0-45.59c5.89,0,11.46,0,17.13,0c0-5.02,0-9.56,0-14.17c-17.6,0-34.82,0-52.2,0
				c0,4.81,0,9.36,0,14.26C206.77,152.82,212.19,152.82,218.1,152.82z M294.45,158.45c-17.77,0-35,0-52.36,0c0,4.74,0,9.17,0,14.18
				c5.72,0,11.27,0,17.13,0c0,15.47,0,30.37,0,45.42c6.09,0,11.83,0,17.97,0c0-15.2,0-30.11,0-45.54c5.93,0,11.49,0,17.26,0
				C294.45,167.57,294.45,163.16,294.45,158.45z"/>
			<path class="st1" d="M1764.49,315.95c-14.49,0.83-28.82-2.43-42.12-9.68c-18.84-10.27-30.32-26.19-34.58-47.14
				c-3.32-16.33-2.57-32.62,3.49-48.21c11.32-29.13,34.38-42.31,64.2-44.49c9.77-0.71,20,0.62,29.6,2.85
				c9.71,2.26,17.41,8.33,20.03,18.91c2.09,8.42-0.95,15.44-6.42,21.52c-0.86,0.96-3.62,1.05-5.11,0.49
				c-9.31-3.48-18.69-5.91-28.78-4.58c-16.37,2.15-28.25,14.68-29.07,31.22c-0.23,4.63-0.28,9.41,0.58,13.93
				c3.59,18.87,21.34,29.69,42.3,25.8c5.02-0.93,9.8-3.13,14.76-4.44c1.52-0.4,3.73-0.38,4.91,0.46
				c12.89,9.13,12.44,28.06-0.84,36.69C1787.6,315.66,1776.47,316.27,1764.49,315.95z"/>
			<path class="st2" d="M1429.68,402.51c-8.93,0-17.41,0.09-25.88-0.1c-1.17-0.03-2.71-1.14-3.39-2.2
				c-5.93-9.22-14.6-12.4-24.97-10.89c-10.99,1.6-17.81,8.33-20.78,18.96c-2.71,9.67-2.25,19.2,2.51,28.11
				c8.81,16.49,32.32,17.65,42.89,2.33c0.81-1.18,2.33-2.61,3.56-2.65c8.63-0.23,17.27-0.12,25.97-0.12
				c-4.94,23.63-28.63,39.44-54.66,36.76c-28.67-2.95-47.55-23.3-47.97-51.71c-0.43-29.32,17.32-51.6,43.78-54.95
				C1399.88,362.37,1423.55,376.76,1429.68,402.51z"/>
			<path class="st2" d="M1821.47,436.29c-9.72,0-19.21,0-28.69,0c-9.48,0-18.95,0-28.41,0c-0.2,7.33,3.31,12.69,9.56,14.96
				c6.65,2.41,13.26,0.58,17.56-4.62c0.93-1.12,2.48-2.41,3.77-2.44c8.14-0.22,16.3-0.11,24.47-0.11
				c-1.68,18.08-23.07,31.39-45.94,28.82c-23.15-2.61-38.44-23.56-35.51-48.25c3.46-29.21,26.05-40.08,48.39-37.24
				C1811.47,390.57,1825.4,410.31,1821.47,436.29z M1764.19,421.73c10.71,0,21.12,0,31.55,0c-0.96-8.54-5.8-13.3-13.78-13.82
				C1772.26,407.27,1766.47,411.7,1764.19,421.73z"/>
			<path class="st2" d="M1527.18,430.53c-0.18,25.64-18.21,42.94-44.46,42.64c-25.54-0.29-42.76-17.81-42.64-43.39
				c0.12-25.28,18.24-42.89,44-42.76C1509.83,387.15,1527.36,404.85,1527.18,430.53z M1501.14,429.19c-0.25-1.52-0.5-4.01-1.09-6.41
				c-2.06-8.29-8.38-13.41-16.36-13.42c-7.84-0.01-14.69,4.76-16.08,12.93c-0.97,5.69-0.9,12.05,0.63,17.57
				c2.75,9.94,13.85,13.94,22.99,9.14C1498.78,445.03,1500.73,437.99,1501.14,429.19z"/>
			<path class="st2" d="M1541.49,388.27c8.48,0,16.61,0,25.38,0c0,3.16,0,6.32,0,10.48c10.32-10.66,21.91-13.52,34.92-10.16
				c13.12,3.39,20.96,12.78,21.8,25.63c1.23,19.02,0.32,38.18,0.32,57.56c-7.87,0-16.11,0-24.91,0c0-7.44,0-14.87,0-22.31
				c0-7.66,0.07-15.33-0.02-22.99c-0.14-11.12-6.1-17.55-16.08-17.51c-9.91,0.04-15.81,6.52-15.87,17.72
				c-0.08,14.96-0.02,29.91-0.02,45.11c-8.61,0-16.88,0-25.52,0C1541.49,444.17,1541.49,416.47,1541.49,388.27z"/>
			<path class="st2" d="M1668,471.79c-8.94,0-17.21,0-25.67,0c0-27.84,0-55.42,0-83.34c8.51,0,16.88,0,25.71,0
				c0,3.17,0,6.23,0,10.14c8.77-9.11,18.7-12.54,30.32-10.85c14.78,2.15,25.52,11.96,26.35,26.94c1.05,18.88,0.25,37.86,0.25,57.09
				c-7.9,0-16.15,0-24.97,0c0-3.73,0-7.5,0-11.27c0-11.66,0.19-23.33-0.07-34.98c-0.28-12.59-10.37-19.63-21.87-15.58
				c-6.39,2.25-9.96,7.81-10.02,16.23c-0.1,13.49-0.03,26.99-0.03,40.48C1668,468.27,1668,469.9,1668,471.79z"/>
			<path class="st2" d="M1913.19,418.77c-8.66,0-16.64,0.11-24.62-0.11c-1.24-0.03-2.89-1.32-3.56-2.48
				c-3.01-5.19-7.5-7.46-13.29-7.07c-5.85,0.4-10.03,3.56-12.1,8.99c-3.15,8.24-3.18,16.61,0.33,24.76
				c2.13,4.95,6.02,7.81,11.54,8.21c5.83,0.42,10.38-1.51,13.4-6.75c0.64-1.1,2.03-2.48,3.1-2.5c8.29-0.21,16.58-0.11,24.91-0.11
				c-1.34,13.86-13.35,26.65-27.96,30.19c-18.51,4.49-36.87-1.63-46.31-15.43c-10.16-14.85-10.24-38.24,0.21-52.79
				c10.23-14.25,24.85-18.26,41.43-16.12c16.42,2.12,27.23,11.4,32.23,27.27C1912.82,415.9,1912.89,417.05,1913.19,418.77z"/>
			<path class="st2" d="M1920.26,409.83c0-7.61,0-14.39,0-21.63c3.27,0,6.35,0,9.84,0c0-6.86,0-13.27,0-19.99
				c8.68,0,16.94,0,25.76,0c0,6.3,0,12.85,0,19.77c5.8,0,11.07,0,16.69,0c0,7.27,0,14.17,0,21.64c-5.26,0-10.65,0-16.43,0
				c0,12.01-0.11,23.45,0.07,34.89c0.05,3.48,2.39,5.4,5.9,5.5c3.46,0.1,6.93,0.02,10.65,0.02c0,7.45,0,14.51,0,21.77
				c-6.39,0-12.73,0.55-18.93-0.11c-15.25-1.61-22.94-10.54-23.51-27.04c-0.34-9.81-0.1-19.65-0.12-29.47c0-1.63,0-3.26,0-5.37
				C1926.74,409.83,1923.67,409.83,1920.26,409.83z"/>
			<path class="st1" d="M244.01,311.87c12.33,0,24.66-0.05,36.99,0.02c5.4,0.03,7.4,1.96,7.4,6.57c-0.01,3.52-1.27,5.67-5.22,5.73
				c-12.15,0.19-24.3,0.73-36.44,0.72c-13.65-0.01-27.29-0.52-40.94-0.69c-4.46-0.06-5.72-2.55-5.67-6.43
				c0.05-4.27,2.31-5.7,6.41-5.65c12.49,0.14,24.99,0.05,37.49,0.05C244.01,312.09,244.01,311.98,244.01,311.87z"/>
			<path class="st1" d="M243.74,343.8c-12.31,0-24.62-0.16-36.92,0.08c-4.83,0.09-6.09-2.36-6.12-6.4
				c-0.03-3.95,1.59-6.32,5.88-6.33c24.61-0.09,49.23-0.26,73.84-0.28c4.65,0,6.79,2.45,6.62,6.84c-0.15,4.09-1.68,6.29-6.38,6.19
				C268.36,343.63,256.05,343.8,243.74,343.8z"/>
			<path class="st1" d="M243.84,363.71c-9.82,0-19.65,0.29-29.45-0.1c-6.15-0.25-8.99-5.89-6.02-11.34
				c0.62-1.13,2.61-2.12,3.99-2.13c20.81-0.25,41.62-0.35,62.43-0.43c3.85-0.02,5.33,2.45,5.23,5.87c-0.11,3.38,0.46,7.64-4.76,7.72
				c-10.47,0.16-20.94,0.05-31.42,0.05C243.84,363.46,243.84,363.59,243.84,363.71z"/>
			<path class="st1" d="M244.48,384.51c-7.48-0.34-14.21-2.18-18.18-9.24c-2.1-3.73-1.25-5.13,3-5.15c9.95-0.06,19.9-0.07,29.86,0
				c4.18,0.03,5,1.44,2.94,5.2C258.29,382.27,251.7,384.04,244.48,384.51z"/>
		</g>
	</g>
</g>
</svg>