<svg width="149" height="133" viewBox="0 0 149 133" fill="none" xmlns="http://www.w3.org/2000/svg">
<path fill-rule="evenodd" clip-rule="evenodd" d="M144.25 66.7676C142.435 64.529 141.12 61.9277 140.394 59.1386C139.667 56.3495 139.547 53.4372 140.04 50.5976C140.93 44.5976 141.15 40.1776 139.82 33.9776C138.49 27.7776 131.58 16.8676 123.9 10.7076C113.71 2.5676 94.1098 -3.3824 74.5198 2.1576C54.9298 -3.3824 35.3298 2.5676 25.1398 10.7076C17.4198 16.8676 10.5098 27.7676 9.13977 33.9776C7.76977 40.1876 8.0298 44.6076 8.9198 50.5976C9.41746 53.4372 9.29911 56.3505 8.57275 59.1403C7.8464 61.9301 6.52898 64.5313 4.70978 66.7676C0.949776 71.4276 -1.49023 74.0776 2.26977 76.7676C6.02977 79.4576 9.35977 79.8776 8.26977 82.0876C7.17977 84.2976 6.72976 85.2476 7.50976 86.6276C7.88843 87.3469 8.35172 88.0183 8.88977 88.6276C8.88977 88.6276 6.72977 91.5776 7.88977 93.1476C9.04977 94.7176 11.4298 93.1476 11.8198 96.4876C12.2098 99.8276 10.4498 103.948 14.5698 106.308C18.6898 108.668 29.0998 106.308 33.2298 105.308C37.3598 104.308 39.5298 122.618 43.2298 132.438C43.2298 132.438 60.5898 132.678 74.4498 125.818C61.3998 122.088 58.2198 107.868 58.2198 107.868L57.5498 96.8176C12.3898 11.1676 75.1198 2.1476 75.1198 2.1476C137.24 19.5676 92.6398 96.5076 92.6398 96.5076L92.1398 107.868C88.7198 121.458 74.8998 125.938 74.8998 125.938L74.4498 125.808C88.3098 132.668 105.66 132.428 105.66 132.428C109.39 122.608 111.57 104.318 115.66 105.298C119.75 106.278 130.19 108.638 134.31 106.298C138.43 103.958 136.67 99.8176 137.06 96.4776C137.45 93.1376 139.81 94.7076 140.99 93.1376C142.17 91.5676 139.99 88.6176 139.99 88.6176C140.526 88.009 140.986 87.3374 141.36 86.6176C142.15 85.2376 141.72 84.2976 140.61 82.0776C139.5 79.8576 142.82 79.4176 146.61 76.7576C150.4 74.0976 147.94 71.4476 144.17 66.7576" fill="white"/>
</svg>
