<svg width="59" height="64" viewBox="0 0 59 64" fill="none" xmlns="http://www.w3.org/2000/svg">
<path fill-rule="evenodd" clip-rule="evenodd" d="M23.0716 48.4598C23.5031 39.076 19.1129 36.5816 17.7788 29.6645C16.4447 22.7474 16.9277 12.4332 25.7516 8.16099C34.5756 3.8888 44.1913 6.45449 48.8388 10.1684C51.8791 12.5955 54.6027 16.8994 55.1292 19.3424C55.6557 21.7853 55.5647 23.5354 55.2163 25.8952C55.0207 27.0152 55.0676 28.1641 55.3537 29.2645C55.6398 30.3648 56.1586 31.391 56.875 32.2738C58.3635 34.1109 59.3215 35.1602 57.837 36.2055C56.3525 37.2507 55.0421 37.4289 55.4618 38.3039C55.8814 39.179 56.0714 39.5512 55.7587 40.0936C55.612 40.3794 55.4297 40.6454 55.2163 40.8855C55.2163 40.8855 56.0714 42.0495 55.6122 42.6672C55.153 43.2849 54.2187 42.6672 54.0643 43.9857C53.91 45.3042 54.6067 46.9275 52.9797 47.858C51.3526 48.7885 47.2514 47.858 45.6244 47.4621C43.9973 47.0661 43.1383 54.2881 41.6657 58.1524C41.6657 58.1524 25.6606 58.3781 23.0597 48.4638M35.6643 48.4598C35.2367 39.076 39.623 36.5816 40.9571 29.6645C42.2911 22.7474 41.8121 12.4332 32.9842 8.16099C24.1563 3.8888 14.5445 6.45449 9.89701 10.1684C6.85672 12.5955 4.13313 16.8994 3.60662 19.3424C3.08011 21.7853 3.17116 23.5354 3.51953 25.8952C3.71514 27.0152 3.66829 28.1641 3.38215 29.2645C3.09602 30.3648 2.57724 31.391 1.86083 32.2738C0.376316 34.1109 -0.585651 35.1602 0.898866 36.2055C2.38338 37.2507 3.69372 37.4289 3.27409 38.3039C2.85447 39.179 2.66841 39.5512 2.97719 40.0936C3.1239 40.3794 3.30612 40.6454 3.51953 40.8855C3.51953 40.8855 2.66841 42.0495 3.12366 42.6672C3.57891 43.2849 4.51713 42.6672 4.67152 43.9857C4.82591 45.3042 4.12917 46.9275 5.7562 47.858C7.38323 48.7885 11.4845 47.858 13.1115 47.4621C14.7385 47.0661 15.5976 54.2881 17.0702 58.1524C17.0702 58.1524 33.0753 58.3781 35.6761 48.4638" fill="white"/>
<path d="M23.99 45.8187C24.9084 45.9418 25.8347 45.996 26.7611 45.9811H28.0517C28.4832 45.9811 28.9265 45.9811 29.358 45.9811C29.7895 45.9811 30.2369 45.9811 30.6644 45.9811H31.9589C32.8854 45.9959 33.8116 45.9416 34.73 45.8187C34.8124 45.8111 34.8895 45.7746 34.9477 45.7158C35.0602 45.5338 35.1198 45.324 35.1198 45.11C35.1198 44.896 35.0602 44.6862 34.9477 44.5042C34.9377 44.4882 34.9241 44.4747 34.9082 44.4646C34.7601 44.3723 34.5964 44.3079 34.4252 44.2746C34.3792 44.2685 34.3326 44.2685 34.2866 44.2746C33.7997 44.2746 33.2772 44.2746 32.7032 44.2746H30.3873H28.0675C26.4167 44.2746 25.1856 44.2944 24.0732 44.3498C24.0204 44.349 23.968 44.3587 23.9191 44.3784C23.8701 44.3981 23.8256 44.4274 23.7881 44.4646C23.6792 44.658 23.622 44.8762 23.622 45.0981C23.622 45.3201 23.6792 45.5383 23.7881 45.7316C23.8469 45.7954 23.9274 45.8349 24.0138 45.8425" fill="white"/>
<path d="M23.8079 48.2421C23.8426 48.2899 23.8886 48.3282 23.9418 48.3538C23.9951 48.3794 24.0538 48.3913 24.1127 48.3886C25.6962 48.4401 27.4737 48.4717 29.2947 48.4717C31.1157 48.4717 32.905 48.4401 34.4727 48.3886C34.5332 48.3927 34.5938 48.3806 34.6481 48.3534C34.7024 48.3263 34.7484 48.2851 34.7815 48.2342C34.8408 48.0877 35.1219 47.3314 34.7102 46.9434C34.5628 46.8177 34.3804 46.7404 34.1877 46.7217H34.1124C33.6414 46.7217 33.1346 46.7217 32.5646 46.7217H30.324H28.0754C26.4919 46.7217 25.3043 46.7454 24.2157 46.8009C24.1479 46.8028 24.0815 46.8204 24.0217 46.8523C23.4437 47.1533 23.705 48.0402 23.8079 48.2579" fill="white"/>
<path d="M33.4988 49.1766C33.4726 49.1729 33.4459 49.1729 33.4197 49.1766C33.0238 49.1766 32.5804 49.1766 32.0935 49.1766C31.4601 49.1766 30.8069 49.1766 30.1735 49.1766H28.2496C26.8838 49.1766 25.8744 49.2004 24.9441 49.2598C24.8976 49.2614 24.8521 49.2742 24.8115 49.2969C24.7709 49.3196 24.7363 49.3517 24.7105 49.3904C24.5285 49.8413 24.5285 50.3452 24.7105 50.796C24.7295 50.829 24.7558 50.8573 24.7873 50.8785C24.8189 50.8998 24.8549 50.9136 24.8926 50.9188C25.6489 51.0529 26.4168 51.1113 27.1847 51.093H28.2298C28.5782 51.093 28.9384 51.093 29.2907 51.093C29.6431 51.093 29.9993 51.093 30.3477 51.093H31.3968C32.1634 51.1113 32.9299 51.0529 33.6849 50.9188C33.7274 50.9125 33.7677 50.8959 33.8022 50.8703C33.8367 50.8448 33.8644 50.8111 33.8828 50.7723C33.9541 50.5862 34.152 49.8181 33.8828 49.4261C33.7937 49.3055 33.6621 49.2234 33.5147 49.1964" fill="white"/>
<path d="M31.5789 51.8413H27.1174C27.0794 51.8413 27.0419 51.8498 27.0076 51.8663C26.9734 51.8827 26.9432 51.9067 26.9195 51.9363C26.896 51.9661 26.8797 52.0009 26.8722 52.038C26.8646 52.0752 26.8659 52.1136 26.8759 52.1501C27.153 53.2192 28.3169 53.6983 29.3462 53.6983C30.3754 53.6983 31.5432 53.2192 31.8164 52.1501C31.8261 52.1137 31.8273 52.0756 31.82 52.0387C31.8126 52.0017 31.7968 51.967 31.7738 51.9371C31.7509 51.9073 31.7213 51.8831 31.6875 51.8665C31.6537 51.8499 31.6165 51.8412 31.5789 51.8413Z" fill="white"/>
<path fill-rule="evenodd" clip-rule="evenodd" d="M33.8433 18.1346C35.4024 18.9565 36.6828 20.2223 37.5226 21.772C38.3625 23.3217 38.724 25.0857 38.5615 26.8409C38.399 28.5961 37.7198 30.2637 36.6097 31.6328C35.4997 33.0019 34.0086 34.0111 32.3251 34.5327C30.6417 35.0542 28.8413 35.0648 27.1518 34.5631C25.4624 34.0613 23.9596 33.0697 22.8335 31.7138C21.7074 30.3578 21.0087 28.6983 20.8256 26.9451C20.6425 25.192 20.9832 23.4238 21.8048 21.8644C22.9074 19.7738 24.7948 18.2066 27.0521 17.5072C29.3095 16.8078 31.7522 17.0335 33.8433 18.1346ZM30.5456 21.6904V23.5434H28.2694V29.5142H25.9377V23.5434H23.6733V21.6904H30.5456ZM35.9097 26.1167V24.2637H29.0374V26.1167H31.3018V32.0875H33.6334V26.1167H35.9097Z" fill="white"/>
</svg>
