<svg width="41" height="41" viewBox="0 0 41 41" fill="none" xmlns="http://www.w3.org/2000/svg">
<mask id="mask0_45_220" style="mask-type:alpha" maskUnits="userSpaceOnUse" x="0" y="1" width="40" height="37">
<path fill-rule="evenodd" clip-rule="evenodd" d="M5.125 1.70837V6.83337H0V10.25H5.125V15.375H8.54167V10.25H13.6667V6.83337H8.54167V1.70837H5.125ZM10.25 11.9584V17.0834H5.125V34.1667C5.125 36.0459 6.6625 37.5834 8.54167 37.5834H35.875C37.7542 37.5834 39.2917 36.0459 39.2917 34.1667V13.6667C39.2917 11.7875 37.7542 10.25 35.875 10.25H30.4596L27.3333 6.83337H15.375V11.9584H10.25ZM22.2083 32.4584C26.9233 32.4584 30.75 28.6317 30.75 23.9167C30.75 19.2017 26.9233 15.375 22.2083 15.375C17.4933 15.375 13.6667 19.2017 13.6667 23.9167C13.6667 28.6317 17.4933 32.4584 22.2083 32.4584ZM22.2083 29.3834C19.1846 29.3834 16.7417 26.9405 16.7417 23.9167C16.7417 20.893 19.1846 18.45 22.2083 18.45C25.2321 18.45 27.675 20.893 27.675 23.9167C27.675 26.9405 25.2321 29.3834 22.2083 29.3834Z" fill="white"/>
</mask>
<g mask="url(#mask0_45_220)">
<rect width="41" height="41" fill="#0D2860"/>
</g>
</svg>
