<svg width="41" height="41" viewBox="0 0 41 41" fill="none" xmlns="http://www.w3.org/2000/svg">
<mask id="mask0_45_177" style="mask-type:alpha" maskUnits="userSpaceOnUse" x="3" y="3" width="35" height="35">
<path fill-rule="evenodd" clip-rule="evenodd" d="M13.4617 5.79124L11.2751 3.17749L3.41675 9.75457L5.6205 12.3683L13.4617 5.79124ZM37.5834 9.77166L29.7251 3.17749L27.5213 5.79124L35.3797 12.3854L37.5834 9.77166ZM18.7917 13.6667H21.3542V22.6354L28.1876 26.6842L26.9063 28.7854L18.7917 23.9167V13.6667ZM20.5001 6.83332C12.0097 6.83332 5.12508 13.7179 5.12508 22.2083C5.12508 30.6987 11.9926 37.5833 20.5001 37.5833C28.9905 37.5833 35.8751 30.6987 35.8751 22.2083C35.8751 13.7179 28.9905 6.83332 20.5001 6.83332ZM8.54175 22.2083C8.54175 28.8196 13.8888 34.1667 20.5001 34.1667C27.1113 34.1667 32.4584 28.8196 32.4584 22.2083C32.4584 15.5971 27.1113 10.25 20.5001 10.25C13.8888 10.25 8.54175 15.5971 8.54175 22.2083Z" fill="white"/>
</mask>
<g mask="url(#mask0_45_177)">
<rect width="41" height="41" fill="#0D2860"/>
</g>
</svg>
