<svg width="41" height="41" viewBox="0 0 41 41" fill="none" xmlns="http://www.w3.org/2000/svg">
<mask id="mask0_45_619" style="mask-type:alpha" maskUnits="userSpaceOnUse" x="6" y="4" width="29" height="34">
<path fill-rule="evenodd" clip-rule="evenodd" d="M30.7499 27.3334V18.7917C30.7499 13.5471 27.9653 9.15671 23.0624 7.99504V6.83337C23.0624 5.41546 21.9178 4.27087 20.4999 4.27087C19.082 4.27087 17.9374 5.41546 17.9374 6.83337V7.99504C13.0516 9.15671 10.2499 13.53 10.2499 18.7917V27.3334L6.83325 30.75V32.4584H34.1666V30.75L30.7499 27.3334ZM20.4999 37.5834C22.3791 37.5834 23.9166 36.0459 23.9166 34.1667H17.0833C17.0833 36.0459 18.6208 37.5834 20.4999 37.5834ZM13.6666 29.0417H27.3333V18.7917C27.3333 14.555 24.7537 11.1042 20.4999 11.1042C16.2462 11.1042 13.6666 14.555 13.6666 18.7917V29.0417Z" fill="white"/>
</mask>
<g mask="url(#mask0_45_619)">
<rect width="41" height="41" fill="#0D2860"/>
</g>
</svg>
