<svg width="24" height="24" viewBox="0 0 24 24" fill="none" xmlns="http://www.w3.org/2000/svg">
<mask id="mask0_0_1478" style="mask-type:alpha" maskUnits="userSpaceOnUse" x="2" y="2" width="20" height="20">
<path fill-rule="evenodd" clip-rule="evenodd" d="M20 2H8C6.9 2 6 2.9 6 4V16C6 17.1 6.9 18 8 18H20C21.1 18 22 17.1 22 16V4C22 2.9 21.1 2 20 2ZM20 12L17.5 10.5L15 12V4H20V12ZM2 6H4V20H18V22H4C2.9 22 2 21.1 2 20V6Z" fill="white"/>
</mask>
<g mask="url(#mask0_0_1478)">
<rect width="24" height="24" fill="currentColor"/>
</g>
</svg>
