<svg width="41" height="41" viewBox="0 0 41 41" fill="none" xmlns="http://www.w3.org/2000/svg">
<mask id="mask0_45_406" style="mask-type:alpha" maskUnits="userSpaceOnUse" x="5" y="8" width="31" height="28">
<path fill-rule="evenodd" clip-rule="evenodd" d="M29.8958 8.54163C31.0233 8.54163 31.98 9.25913 32.3217 10.267L35.875 20.5V34.1666C35.875 35.1062 35.1063 35.875 34.1667 35.875H32.4583C31.5188 35.875 30.75 35.1062 30.75 34.1666V32.4583H10.25V34.1666C10.25 35.1062 9.48125 35.875 8.54167 35.875H6.83333C5.89375 35.875 5.125 35.1062 5.125 34.1666V20.5L8.67833 10.267C9.03708 9.25913 9.97667 8.54163 11.1042 8.54163H29.8958ZM8.54167 24.7708C8.54167 26.1887 9.68625 27.3333 11.1042 27.3333C12.5221 27.3333 13.6667 26.1887 13.6667 24.7708C13.6667 23.3529 12.5221 22.2083 11.1042 22.2083C9.68625 22.2083 8.54167 23.3529 8.54167 24.7708ZM29.8958 27.3333C28.4779 27.3333 27.3333 26.1887 27.3333 24.7708C27.3333 23.3529 28.4779 22.2083 29.8958 22.2083C31.3138 22.2083 32.4583 23.3529 32.4583 24.7708C32.4583 26.1887 31.3138 27.3333 29.8958 27.3333ZM11.1042 11.1041L8.54167 18.7916H32.4583L29.8958 11.1041H11.1042Z" fill="white"/>
</mask>
<g mask="url(#mask0_45_406)">
<rect width="41" height="41" fill="#0D2860"/>
</g>
</svg>
