<svg width="41" height="41" viewBox="0 0 41 41" fill="none" xmlns="http://www.w3.org/2000/svg">
<mask id="mask0_45_391" style="mask-type:alpha" maskUnits="userSpaceOnUse" x="5" y="0" width="31" height="38">
<path fill-rule="evenodd" clip-rule="evenodd" d="M32.4583 3.41667H25.3175C24.6 1.435 22.7208 0 20.5 0C18.2792 0 16.4 1.435 15.6825 3.41667H8.54167C6.6625 3.41667 5.125 4.95417 5.125 6.83333V34.1667C5.125 36.0458 6.6625 37.5833 8.54167 37.5833H32.4583C34.3375 37.5833 35.875 36.0458 35.875 34.1667V6.83333C35.875 4.95417 34.3375 3.41667 32.4583 3.41667ZM20.5 3.41667C21.4396 3.41667 22.2083 4.18542 22.2083 5.125C22.2083 6.06458 21.4396 6.83333 20.5 6.83333C19.5604 6.83333 18.7917 6.06458 18.7917 5.125C18.7917 4.18542 19.5604 3.41667 20.5 3.41667ZM8.54167 6.83333V34.1667H32.4583V6.83333H29.0417V11.9583H11.9583V6.83333H8.54167Z" fill="white"/>
</mask>
<g mask="url(#mask0_45_391)">
<rect width="41" height="41" fill="#0D2860"/>
</g>
</svg>
