<svg width="41" height="41" viewBox="0 0 41 41" fill="none" xmlns="http://www.w3.org/2000/svg">
<mask id="mask0_45_366" style="mask-type:alpha" maskUnits="userSpaceOnUse" x="0" y="6" width="41" height="29">
<path fill-rule="evenodd" clip-rule="evenodd" d="M20.5 6.83337C26.7183 6.83337 31.8946 11.258 33.0563 17.1517C37.4979 17.4592 41 21.115 41 25.625C41 30.34 37.1733 34.1667 32.4583 34.1667H10.25C4.59542 34.1667 0 29.5713 0 23.9167C0 18.638 3.9975 14.2817 9.13958 13.735C11.275 9.63504 15.5629 6.83337 20.5 6.83337ZM10.25 30.75H32.4583C35.2942 30.75 37.5833 28.4609 37.5833 25.625C37.5833 22.7892 35.2942 20.5 32.4583 20.5H29.8958V19.6459C29.8958 14.4525 25.6933 10.25 20.5 10.25C16.195 10.25 12.5904 13.1371 11.4629 17.0834H10.25C6.47458 17.0834 3.41667 20.1413 3.41667 23.9167C3.41667 27.6921 6.47458 30.75 10.25 30.75Z" fill="white"/>
</mask>
<g mask="url(#mask0_45_366)">
<rect width="41" height="41" fill="#0D2860"/>
</g>
</svg>
