<svg width="41" height="41" viewBox="0 0 41 41" fill="none" xmlns="http://www.w3.org/2000/svg">
<mask id="mask0_45_481" style="mask-type:alpha" maskUnits="userSpaceOnUse" x="3" y="11" width="35" height="19">
<path fill-rule="evenodd" clip-rule="evenodd" d="M6.66258 20.5C6.66258 17.5788 9.03717 15.2042 11.9584 15.2042H18.7917V11.9584H11.9584C7.24342 11.9584 3.41675 15.785 3.41675 20.5C3.41675 25.215 7.24342 29.0417 11.9584 29.0417H18.7917V25.7959H11.9584C9.03717 25.7959 6.66258 23.4213 6.66258 20.5ZM13.6667 22.2084H27.3334V18.7917H13.6667V22.2084ZM22.2084 11.9584H29.0417C33.7568 11.9584 37.5834 15.785 37.5834 20.5C37.5834 25.215 33.7568 29.0417 29.0417 29.0417H22.2084V25.7959H29.0417C31.963 25.7959 34.3376 23.4213 34.3376 20.5C34.3376 17.5788 31.963 15.2042 29.0417 15.2042H22.2084V11.9584Z" fill="white"/>
</mask>
<g mask="url(#mask0_45_481)">
<rect width="41" height="41" fill="#0D2860"/>
</g>
</svg>
