<svg width="41" height="41" viewBox="0 0 41 41" fill="none" xmlns="http://www.w3.org/2000/svg">
<mask id="mask0_45_510" style="mask-type:alpha" maskUnits="userSpaceOnUse" x="6" y="1" width="29" height="37">
<path fill-rule="evenodd" clip-rule="evenodd" d="M29.0416 13.6667H30.7499C32.6291 13.6667 34.1666 15.2042 34.1666 17.0834V34.1667C34.1666 36.0459 32.6291 37.5834 30.7499 37.5834H10.2499C8.37075 37.5834 6.83325 36.0459 6.83325 34.1667V17.0834C6.83325 15.2042 8.37075 13.6667 10.2499 13.6667H11.9583V10.25C11.9583 5.53504 15.7849 1.70837 20.4999 1.70837C25.2149 1.70837 29.0416 5.53504 29.0416 10.25V13.6667ZM23.9166 25.625C23.9166 27.5042 22.3791 29.0417 20.4999 29.0417C18.6208 29.0417 17.0833 27.5042 17.0833 25.625C17.0833 23.7459 18.6208 22.2084 20.4999 22.2084C22.3791 22.2084 23.9166 23.7459 23.9166 25.625ZM15.2041 10.25C15.2041 7.32879 17.5787 4.95421 20.4999 4.95421C23.4212 4.95421 25.7958 7.32879 25.7958 10.25V13.6667H15.2041V10.25ZM10.2499 34.1667H30.7499V17.0834H10.2499V34.1667Z" fill="white"/>
</mask>
<g mask="url(#mask0_45_510)">
<rect width="41" height="41" fill="#0D2860"/>
</g>
</svg>
