<svg width="41" height="41" viewBox="0 0 41 41" fill="none" xmlns="http://www.w3.org/2000/svg">
<mask id="mask0_45_603" style="mask-type:alpha" maskUnits="userSpaceOnUse" x="5" y="3" width="31" height="33">
<path fill-rule="evenodd" clip-rule="evenodd" d="M25.6079 18.9369L25.6079 18.9368C25.6165 18.8899 25.625 18.8429 25.625 18.7916V8.54163C25.625 5.70579 23.3358 3.41663 20.5 3.41663C17.6642 3.41663 15.375 5.70579 15.375 8.54163V8.84913L25.5908 19.082C25.5908 19.0308 25.5994 18.9838 25.6079 18.9369ZM32.4583 18.7916H29.5542C29.5542 20.0558 29.2808 21.2345 28.8196 22.2937L30.9208 24.395C31.8775 22.7208 32.4583 20.8245 32.4583 18.7916ZM5.125 7.29454L7.29458 5.12496L35.875 33.7054L33.7054 35.875L26.5475 28.7341C25.2321 29.5029 23.7629 30.0495 22.2083 30.2716V35.875H18.7917V30.2716C13.1883 29.4345 8.54167 24.617 8.54167 18.7916H11.4458C11.4458 23.9166 15.785 27.5041 20.5 27.5041C21.8838 27.5041 23.2333 27.1795 24.4463 26.6158L21.6104 23.78C21.2517 23.8654 20.8758 23.9166 20.5 23.9166C17.6642 23.9166 15.3921 21.6275 15.3921 18.7916V17.5616L5.125 7.29454Z" fill="white"/>
</mask>
<g mask="url(#mask0_45_603)">
<rect width="41" height="41" fill="#0D2860"/>
</g>
</svg>
