<svg width="41" height="41" viewBox="0 0 41 41" fill="none" xmlns="http://www.w3.org/2000/svg">
<mask id="mask0_45_588" style="mask-type:alpha" maskUnits="userSpaceOnUse" x="8" y="3" width="25" height="33">
<path fill-rule="evenodd" clip-rule="evenodd" d="M25.608 18.7916C25.608 21.6275 23.3359 23.9166 20.5001 23.9166C17.6642 23.9166 15.3751 21.6275 15.3751 18.7916V8.54163C15.3751 5.70579 17.6642 3.41663 20.5001 3.41663C23.3359 3.41663 25.6251 5.70579 25.6251 8.54163L25.608 18.7916ZM20.5001 27.5041C25.2151 27.5041 29.5543 23.9166 29.5543 18.7916H32.4584C32.4584 24.6341 27.8118 29.4516 22.2084 30.2716V35.875H18.7917V30.2716C13.1884 29.4345 8.54175 24.617 8.54175 18.7916H11.4459C11.4459 23.9166 15.7851 27.5041 20.5001 27.5041Z" fill="white"/>
</mask>
<g mask="url(#mask0_45_588)">
<rect width="41" height="41" fill="#0D2860"/>
</g>
</svg>
