<svg width="41" height="41" viewBox="0 0 41 41" fill="none" xmlns="http://www.w3.org/2000/svg">
<mask id="mask0_45_573" style="mask-type:alpha" maskUnits="userSpaceOnUse" x="3" y="3" width="35" height="35">
<path fill-rule="evenodd" clip-rule="evenodd" d="M20.483 3.41663C11.053 3.41663 3.41675 11.07 3.41675 20.5C3.41675 29.93 11.053 37.5833 20.483 37.5833C29.9301 37.5833 37.5834 29.93 37.5834 20.5C37.5834 11.07 29.9301 3.41663 20.483 3.41663ZM20.5001 34.1666C12.9492 34.1666 6.83341 28.0508 6.83341 20.5C6.83341 12.9491 12.9492 6.83329 20.5001 6.83329C28.0509 6.83329 34.1667 12.9491 34.1667 20.5C34.1667 28.0508 28.0509 34.1666 20.5001 34.1666ZM29.0417 16.2291C29.0417 17.647 27.8972 18.7916 26.4792 18.7916C25.0613 18.7916 23.9167 17.647 23.9167 16.2291C23.9167 14.8112 25.0613 13.6666 26.4792 13.6666C27.8972 13.6666 29.0417 14.8112 29.0417 16.2291ZM14.5209 18.7916C15.9388 18.7916 17.0834 17.647 17.0834 16.2291C17.0834 14.8112 15.9388 13.6666 14.5209 13.6666C13.103 13.6666 11.9584 14.8112 11.9584 16.2291C11.9584 17.647 13.103 18.7916 14.5209 18.7916ZM11.7705 29.8958C13.1372 26.4108 16.5197 23.9166 20.5001 23.9166C24.4805 23.9166 27.863 26.4108 29.2297 29.8958H11.7705Z" fill="white"/>
</mask>
<g mask="url(#mask0_45_573)">
<rect width="41" height="41" fill="#0D2860"/>
</g>
</svg>
