<svg width="41" height="41" viewBox="0 0 41 41" fill="none" xmlns="http://www.w3.org/2000/svg">
<mask id="mask0_45_634" style="mask-type:alpha" maskUnits="userSpaceOnUse" x="6" y="6" width="29" height="29">
<path fill-rule="evenodd" clip-rule="evenodd" d="M20.4999 6.83337C16.7245 6.83337 13.6666 9.89129 13.6666 13.6667C13.6666 17.4421 16.7245 20.5 20.4999 20.5C24.2753 20.5 27.3333 17.4421 27.3333 13.6667C27.3333 9.89129 24.2753 6.83337 20.4999 6.83337ZM24.0874 13.6667C24.0874 11.685 22.4816 10.0792 20.4999 10.0792C18.5183 10.0792 16.9124 11.685 16.9124 13.6667C16.9124 15.6484 18.5183 17.2542 20.4999 17.2542C22.4816 17.2542 24.0874 15.6484 24.0874 13.6667ZM30.9208 29.0417C30.9208 27.9484 25.5737 25.4542 20.4999 25.4542C15.4262 25.4542 10.0791 27.9484 10.0791 29.0417V30.9209H30.9208V29.0417ZM6.83325 29.0417C6.83325 24.4975 15.9387 22.2084 20.4999 22.2084C25.0612 22.2084 34.1666 24.4975 34.1666 29.0417V34.1667H6.83325V29.0417Z" fill="white"/>
</mask>
<g mask="url(#mask0_45_634)">
<rect width="41" height="41" fill="#0D2860"/>
</g>
</svg>
