<svg width="41" height="41" viewBox="0 0 41 41" fill="none" xmlns="http://www.w3.org/2000/svg">
<mask id="mask0_45_193" style="mask-type:alpha" maskUnits="userSpaceOnUse" x="3" y="3" width="35" height="35">
<path fill-rule="evenodd" clip-rule="evenodd" d="M20.5001 3.41663C11.0701 3.41663 3.41675 11.07 3.41675 20.5C3.41675 29.93 11.0701 37.5833 20.5001 37.5833C29.9301 37.5833 37.5834 29.93 37.5834 20.5C37.5834 11.07 29.9301 3.41663 20.5001 3.41663ZM18.7917 11.9583V18.7916H11.9584V22.2083H18.7917V29.0416H22.2084V22.2083H29.0417V18.7916H22.2084V11.9583H18.7917ZM6.83341 20.5C6.83341 28.0337 12.9663 34.1666 20.5001 34.1666C28.0338 34.1666 34.1667 28.0337 34.1667 20.5C34.1667 12.9662 28.0338 6.83329 20.5001 6.83329C12.9663 6.83329 6.83341 12.9662 6.83341 20.5Z" fill="white"/>
</mask>
<g mask="url(#mask0_45_193)">
<rect width="41" height="41" fill="#0D2860"/>
</g>
</svg>
