<svg width="41" height="41" viewBox="0 0 41 41" fill="none" xmlns="http://www.w3.org/2000/svg">
<mask id="mask0_45_423" style="mask-type:alpha" maskUnits="userSpaceOnUse" x="6" y="3" width="29" height="33">
<path fill-rule="evenodd" clip-rule="evenodd" d="M20.4999 3.41663C12.9491 3.41663 6.83325 4.27079 6.83325 10.25V26.4791C6.83325 29.7762 9.51533 32.4583 12.8124 32.4583L10.2499 35.0208V35.875H30.7499V35.0208L28.1874 32.4583C31.4845 32.4583 34.1666 29.7762 34.1666 26.4791V10.25C34.1666 4.27079 28.0507 3.41663 20.4999 3.41663ZM12.8124 29.0416C11.3945 29.0416 10.2499 27.897 10.2499 26.4791C10.2499 25.0612 11.3945 23.9166 12.8124 23.9166C14.2303 23.9166 15.3749 25.0612 15.3749 26.4791C15.3749 27.897 14.2303 29.0416 12.8124 29.0416ZM10.2499 18.7916H18.7916V10.25H10.2499V18.7916ZM28.1874 29.0416C26.7695 29.0416 25.6249 27.897 25.6249 26.4791C25.6249 25.0612 26.7695 23.9166 28.1874 23.9166C29.6053 23.9166 30.7499 25.0612 30.7499 26.4791C30.7499 27.897 29.6053 29.0416 28.1874 29.0416ZM22.2083 18.7916H30.7499V10.25H22.2083V18.7916Z" fill="white"/>
</mask>
<g mask="url(#mask0_45_423)">
<rect width="41" height="41" fill="#0D2860"/>
</g>
</svg>
