<svg width="41" height="41" viewBox="0 0 41 41" fill="none" xmlns="http://www.w3.org/2000/svg">
<mask id="mask0_45_525" style="mask-type:alpha" maskUnits="userSpaceOnUse" x="6" y="1" width="29" height="37">
<path fill-rule="evenodd" clip-rule="evenodd" d="M30.7499 13.6667H29.0416V10.25C29.0416 5.53504 25.2149 1.70837 20.4999 1.70837C15.7849 1.70837 11.9583 5.53504 11.9583 10.25H15.2041C15.2041 7.32879 17.5787 4.95421 20.4999 4.95421C23.4212 4.95421 25.7957 7.32879 25.7957 10.25V13.6667H10.2499C8.37075 13.6667 6.83325 15.2042 6.83325 17.0834V34.1667C6.83325 36.0459 8.37075 37.5834 10.2499 37.5834H30.7499C32.6291 37.5834 34.1666 36.0459 34.1666 34.1667V17.0834C34.1666 15.2042 32.6291 13.6667 30.7499 13.6667ZM20.4999 29.0417C22.3791 29.0417 23.9166 27.5042 23.9166 25.625C23.9166 23.7459 22.3791 22.2084 20.4999 22.2084C18.6208 22.2084 17.0833 23.7459 17.0833 25.625C17.0833 27.5042 18.6208 29.0417 20.4999 29.0417ZM10.2499 34.1667H30.7499V17.0834H10.2499V34.1667Z" fill="white"/>
</mask>
<g mask="url(#mask0_45_525)">
<rect width="41" height="41" fill="#0D2860"/>
</g>
</svg>
