<svg width="41" height="41" viewBox="0 0 41 41" fill="none" xmlns="http://www.w3.org/2000/svg">
<mask id="mask0_45_440" style="mask-type:alpha" maskUnits="userSpaceOnUse" x="3" y="3" width="35" height="35">
<path fill-rule="evenodd" clip-rule="evenodd" d="M20.483 3.41663C11.053 3.41663 3.41675 11.07 3.41675 20.5C3.41675 29.93 11.053 37.5833 20.483 37.5833C29.9301 37.5833 37.5834 29.93 37.5834 20.5C37.5834 11.07 29.9301 3.41663 20.483 3.41663ZM22.2084 22.2083V11.9583H18.7917V22.2083H22.2084ZM22.2084 29.0416V25.625H18.7917V29.0416H22.2084ZM6.83341 20.5C6.83341 28.0508 12.9492 34.1666 20.5001 34.1666C28.0509 34.1666 34.1667 28.0508 34.1667 20.5C34.1667 12.9491 28.0509 6.83329 20.5001 6.83329C12.9492 6.83329 6.83341 12.9491 6.83341 20.5Z" fill="white"/>
</mask>
<g mask="url(#mask0_45_440)">
<rect width="41" height="41" fill="#0D2860"/>
</g>
</svg>
