<svg width="41" height="41" viewBox="0 0 41 41" fill="none" xmlns="http://www.w3.org/2000/svg">
<mask id="mask0_45_722" style="mask-type:alpha" maskUnits="userSpaceOnUse" x="5" y="5" width="31" height="31">
<path fill-rule="evenodd" clip-rule="evenodd" d="M26.4792 23.9167H25.1296L24.6513 23.4554C26.3254 21.5079 27.3333 18.9796 27.3333 16.2292C27.3333 10.0963 22.3621 5.125 16.2292 5.125C10.0963 5.125 5.125 10.0963 5.125 16.2292C5.125 22.3621 10.0963 27.3333 16.2292 27.3333C18.9796 27.3333 21.5079 26.3254 23.4554 24.6513L23.9167 25.1296V26.4792L32.4583 35.0037L35.0037 32.4583L26.4792 23.9167ZM16.2292 23.9167C11.9754 23.9167 8.54167 20.4829 8.54167 16.2292C8.54167 11.9754 11.9754 8.54167 16.2292 8.54167C20.4829 8.54167 23.9167 11.9754 23.9167 16.2292C23.9167 20.4829 20.4829 23.9167 16.2292 23.9167ZM17.0833 17.0833H20.5V15.375H17.0833V11.9583H15.375V15.375H11.9583V17.0833H15.375V20.5H17.0833V17.0833Z" fill="white"/>
</mask>
<g mask="url(#mask0_45_722)">
<rect width="41" height="41" fill="#0D2860"/>
</g>
</svg>
