<svg width="15" height="15" viewBox="0 0 15 15" fill="none" xmlns="http://www.w3.org/2000/svg">
<g clip-path="url(#clip0_1777_1151)">
<path d="M1.75922 1.88525H5.36151C5.99844 1.88525 6.60927 2.13827 7.05965 2.58865C7.51002 3.03902 7.76304 3.64986 7.76304 4.28678V12.6921C7.76304 12.2144 7.57328 11.7563 7.2355 11.4185C6.89772 11.0808 6.43959 10.891 5.96189 10.891H1.75922V1.88525Z" stroke="#9EB934" stroke-width="1.35086" stroke-linecap="round" stroke-linejoin="round"/>
<path d="M13.7667 1.88525H10.1644C9.52748 1.88525 8.91664 2.13827 8.46627 2.58865C8.0159 3.03902 7.76288 3.64986 7.76288 4.28678V12.6921C7.76288 12.2144 7.95264 11.7563 8.29042 11.4185C8.6282 11.0808 9.08633 10.891 9.56403 10.891H13.7667V1.88525Z" stroke="#9EB934" stroke-width="1.35086" stroke-linecap="round" stroke-linejoin="round"/>
</g>
<defs>
<clipPath id="clip0_1777_1151">
<rect width="14.4092" height="14.4092" fill="white" transform="translate(0.558289 0.0841064)"/>
</clipPath>
</defs>
</svg>
