<svg width="31" height="23" viewBox="0 0 31 23" fill="none" xmlns="http://www.w3.org/2000/svg">
<path d="M27.4999 0.666667C26.0199 0.2 24.3933 0 22.8333 0C20.2333 0 17.4333 0.533333 15.4999 2C13.5666 0.533333 10.7666 0 8.16658 0C5.56659 0 2.76659 0.533333 0.833252 2V21.5333C0.833252 21.8667 1.16659 22.2 1.49992 22.2C1.63325 22.2 1.69992 22.1333 1.83325 22.1333C3.63325 21.2667 6.23325 20.6667 8.16658 20.6667C10.7666 20.6667 13.5666 21.2 15.4999 22.6667C17.2999 21.5333 20.5666 20.6667 22.8333 20.6667C25.0333 20.6667 27.2999 21.0667 29.1666 22.0667C29.2999 22.1333 29.3666 22.1333 29.4999 22.1333C29.8333 22.1333 30.1666 21.8 30.1666 21.4667V2C29.3666 1.4 28.4999 1 27.4999 0.666667ZM27.4999 18.6667C26.0333 18.2 24.4333 18 22.8333 18C20.5666 18 17.2999 18.8667 15.4999 20V4.66667C17.2999 3.53333 20.5666 2.66667 22.8333 2.66667C24.4333 2.66667 26.0333 2.86667 27.4999 3.33333V18.6667Z" fill="#F2A61F"/>
</svg>
