<svg version="1.0" width="2500.000000pt" height="2500.000000pt" viewBox="0 0 2500.000000 2500.000000" preserveAspectRatio="xMidYMid meet">

<g transform="translate(0.000000,2500.000000) scale(0.100000,-0.100000)" fill="#000000" stroke="none">
<path d="M12700 18003 c-52 -19 -189 -69 -305 -110 -115 -41 -244 -88 -285 -103 -98 -37 -294 -107 -500 -180 -91 -32 -178 -64 -195 -71 -16 -7 -48 -18 -70 -24 -67 -21 -269 -94 -287 -105 -10 -5 -23 -10 -29 -10 -16 0 -293 -101 -303 -111 -6 -5 -18 -9 -28 -9 -10 0 -46 -11 -80 -24 -35 -13 -97 -36 -138 -51 -41 -14 -84 -30 -95 -35 -11 -5 -29 -11 -40 -13 -11 -3 -72 -24 -135 -47 -63 -23 -144 -53 -180 -65 -36 -13 -110 -40 -165 -60 -55 -20 -143 -51 -195 -70 -52 -18 -140 -50 -195 -70 -55 -20 -118 -43 -140 -50 -22 -8 -98 -35 -170 -60 -172 -62 -368 -132 -540 -193 -243 -87 -387 -139 -490 -177 -103 -37 -159 -57 -325 -114 -52 -18 -96 -37 -98 -42 -2 -5 -12 -9 -21 -9 -10 0 -76 -21 -147 -46 -71 -25 -190 -68 -264 -94 -74 -26 -218 -78 -320 -114 -102 -37 -196 -71 -210 -76 -14 -4 -68 -24 -120 -43 -52 -19 -160 -58 -240 -87 -80 -28 -154 -55 -165 -59 -11 -5 -38 -14 -60 -21 -22 -7 -53 -18 -70 -26 -16 -7 -73 -27 -125 -44 -52 -18 -129 -44 -170 -60 -74 -28 -152 -56 -292 -106 -40 -14 -82 -29 -93 -34 -11 -5 -45 -16 -75 -26 -30 -9 -59 -20 -64 -25 -6 -5 -17 -9 -25 -9 -9 0 -45 -11 -81 -24 -77 -29 -245 -91 -315 -116 -27 -9 -88 -31 -135 -48 -47 -17 -143 -51 -215 -76 -71 -26 -139 -50 -150 -55 -11 -5 -44 -17 -74 -26 -30 -9 -73 -24 -95 -34 -23 -10 -66 -26 -96 -35 -60 -20 -233 -82 -265 -96 -11 -4 -35 -13 -53 -19 -89 -28 -162 -131 -162 -226 0 -72 24 -136 68 -177 45 -43 71 -57 187 -98 50 -18 128 -47 175 -65 47 -18 144 -53 215 -79 167 -61 369 -136 515 -191 110 -41 514 -190 650 -240 232 -85 746 -275 867 -321 34 -13 120 -44 190 -69 70 -25 155 -56 188 -70 33 -13 137 -51 230 -85 263 -97 618 -228 745 -276 63 -24 178 -66 255 -94 207 -75 370 -135 565 -208 74 -28 198 -73 275 -102 77 -28 181 -66 230 -85 50 -18 124 -45 165 -60 41 -15 84 -30 95 -35 11 -4 65 -25 120 -45 55 -20 116 -42 135 -50 19 -7 67 -25 105 -39 134 -48 270 -98 290 -106 11 -5 54 -20 95 -35 41 -15 84 -31 95 -35 18 -8 105 -40 320 -117 39 -14 79 -29 90 -33 26 -11 131 -50 225 -85 217 -80 261 -96 330 -121 41 -15 93 -34 115 -44 22 -9 65 -25 95 -34 30 -10 69 -24 85 -31 17 -7 82 -32 145 -55 63 -23 176 -64 250 -92 74 -27 178 -65 230 -84 52 -20 131 -49 175 -66 44 -17 123 -46 175 -65 52 -19 191 -70 308 -114 245 -91 266 -94 387 -50 180 66 278 103 435 161 91 34 194 72 230 85 203 73 268 97 294 110 16 8 33 15 37 15 5 0 68 22 141 49 73 27 232 86 353 131 121 45 234 87 250 95 17 7 55 21 85 30 30 9 73 26 94 36 22 10 44 19 50 19 13 0 202 69 301 110 11 5 45 16 75 26 30 9 60 20 65 24 6 4 23 10 39 14 15 4 49 16 75 27 57 26 76 33 126 49 22 7 54 18 70 25 17 7 44 18 60 23 60 20 200 72 220 81 11 6 56 22 100 36 44 15 98 36 119 46 22 10 46 19 53 19 7 0 29 7 50 16 48 21 70 30 108 42 17 6 75 27 130 47 55 20 120 43 145 52 25 8 59 21 75 28 17 7 64 25 105 40 125 45 517 190 555 205 11 5 54 21 95 35 41 15 84 31 95 35 11 5 65 25 120 45 55 19 109 39 120 44 11 5 61 23 110 41 145 52 199 73 210 80 6 4 24 11 42 14 17 4 82 27 145 52 62 24 118 44 125 44 7 0 13 3 13 8 0 4 19 12 43 18 23 6 85 27 137 47 52 19 165 60 250 91 85 31 163 61 172 66 10 6 25 10 33 10 8 0 15 4 15 9 0 4 15 11 33 14 18 3 53 14 78 25 24 10 70 27 102 37 31 10 57 22 57 27 0 4 8 8 18 8 21 0 53 11 322 111 118 44 247 92 285 106 80 29 132 50 157 63 10 6 23 10 30 10 7 0 44 12 83 26 38 14 113 42 165 61 52 19 156 58 230 85 74 28 167 62 205 76 39 14 74 29 79 34 6 4 17 8 25 8 14 0 191 65 374 136 48 19 92 34 97 34 6 0 29 9 53 19 69 31 77 32 77 13 0 -9 0 -560 0 -1223 0 -663 2 -1213 6 -1222 5 -14 35 -16 244 -17 200 0 239 2 243 14 10 25 7 2796 -2 2868 -6 47 -17 77 -35 101 -36 47 -96 85 -145 93 -23 4 -41 10 -41 14 0 4 -8 10 -17 13 -45 13 -201 70 -230 83 -17 8 -40 14 -50 14 -10 0 -23 4 -29 9 -10 10 -119 49 -149 54 -11 2 -40 13 -65 24 -49 22 -122 48 -185 66 -22 7 -42 14 -45 17 -3 3 -21 11 -40 17 -81 26 -216 74 -232 83 -10 6 -26 10 -36 10 -10 0 -22 4 -28 9 -5 5 -52 23 -104 41 -109 36 -277 98 -302 111 -10 5 -28 9 -41 9 -13 0 -27 4 -33 9 -5 4 -31 16 -59 26 -27 9 -59 21 -70 25 -71 28 -108 40 -130 40 -14 0 -25 4 -25 8 0 9 -28 20 -185 73 -66 22 -138 49 -160 58 -22 10 -65 26 -95 36 -61 20 -184 63 -215 75 -104 41 -158 60 -173 60 -10 0 -22 4 -27 9 -6 5 -77 32 -160 61 -82 29 -177 63 -211 76 -34 13 -75 25 -92 26 -17 1 -29 5 -27 8 2 3 -31 19 -73 34 -42 15 -99 37 -127 47 -27 10 -69 22 -92 25 -24 4 -43 10 -43 14 0 9 -72 38 -205 81 -55 18 -104 36 -110 40 -5 4 -50 21 -100 38 -103 34 -187 64 -330 116 -55 20 -140 50 -190 67 -49 16 -108 38 -130 48 -22 9 -85 32 -140 50 -103 33 -123 40 -165 58 -14 6 -47 18 -75 27 -27 9 -58 21 -67 26 -10 5 -26 9 -36 9 -10 0 -22 4 -27 8 -11 10 -125 53 -205 78 -30 9 -64 21 -75 25 -11 4 -42 15 -70 24 -48 16 -67 24 -117 44 -13 5 -56 21 -95 35 -40 14 -103 37 -141 51 -37 14 -80 25 -95 25 -15 0 -27 3 -27 8 0 9 -74 42 -95 42 -8 0 -23 4 -33 9 -46 25 -93 41 -116 41 -14 0 -26 5 -26 10 0 6 -11 10 -24 10 -13 0 -26 3 -28 8 -3 7 -89 40 -198 74 -76 24 -90 29 -151 57 -26 11 -60 23 -75 26 -16 4 -39 11 -51 16 -57 23 -75 30 -180 68 -62 23 -116 41 -120 41 -4 0 -35 11 -68 25 -33 13 -70 25 -82 25 -13 0 -23 4 -23 8 0 5 -19 14 -42 21 -24 7 -52 16 -63 20 -62 26 -165 62 -195 67 -19 4 -37 10 -40 14 -10 14 -285 110 -322 113 -10 1 -18 5 -18 9 0 4 -8 8 -18 8 -10 0 -22 4 -27 9 -9 8 -152 61 -222 82 -17 5 -64 23 -104 39 -39 17 -78 30 -86 30 -8 0 -39 11 -69 25 -30 14 -61 25 -68 25 -7 0 -39 11 -70 25 -31 14 -68 25 -81 25 -14 0 -25 5 -25 10 0 6 -7 10 -16 10 -9 0 -30 6 -47 14 -49 22 -181 66 -200 66 -9 0 -17 5 -17 10 0 6 -32 10 -77 9 -62 -1 -97 -8 -173 -36z m211 -484 c19 -6 43 -14 54 -19 11 -5 53 -20 93 -34 39 -14 102 -37 140 -51 37 -14 74 -25 83 -25 8 0 19 -4 25 -9 8 -9 68 -30 349 -127 61 -20 129 -45 151 -55 23 -10 68 -27 100 -38 33 -11 104 -37 159 -57 55 -20 136 -48 180 -64 44 -15 132 -46 195 -70 63 -23 133 -48 155 -55 22 -7 85 -30 140 -50 55 -20 159 -57 230 -81 124 -43 217 -76 260 -94 47 -20 244 -89 370 -131 50 -16 99 -34 110 -39 17 -8 151 -57 240 -88 17 -6 75 -27 130 -47 55 -20 111 -40 125 -45 36 -12 286 -102 405 -145 55 -20 132 -47 170 -60 39 -14 115 -41 170 -60 55 -20 129 -47 165 -60 36 -12 94 -33 130 -46 36 -12 80 -29 99 -37 19 -8 66 -25 105 -38 39 -13 109 -37 156 -54 47 -17 121 -44 165 -60 44 -15 125 -44 180 -65 55 -20 116 -41 135 -46 19 -6 49 -16 65 -24 17 -7 59 -23 95 -35 65 -22 187 -65 225 -80 11 -5 29 -11 40 -15 11 -4 63 -23 115 -42 52 -19 169 -61 260 -93 91 -32 210 -75 265 -95 55 -20 111 -40 125 -45 14 -4 77 -27 140 -50 63 -23 126 -46 140 -50 14 -4 70 -25 125 -45 103 -37 306 -111 475 -170 52 -18 140 -50 195 -70 194 -70 270 -97 295 -102 14 -3 30 -9 35 -13 6 -4 46 -19 90 -35 44 -15 89 -31 100 -35 72 -29 109 -40 135 -40 17 0 30 -4 30 -10 0 -5 11 -10 25 -10 14 0 25 -4 25 -8 0 -4 15 -13 33 -20 31 -12 31 -13 12 -27 -11 -8 -25 -19 -32 -25 -7 -5 -21 -10 -33 -10 -11 0 -44 -9 -73 -19 -28 -11 -79 -29 -112 -40 -61 -22 -96 -36 -127 -52 -10 -5 -23 -9 -30 -9 -7 0 -74 -23 -148 -51 -270 -101 -367 -137 -480 -179 -63 -23 -124 -45 -135 -50 -11 -4 -51 -19 -90 -33 -144 -52 -302 -111 -365 -134 -36 -14 -78 -29 -95 -35 -16 -5 -40 -14 -52 -19 -13 -5 -33 -13 -45 -18 -13 -5 -57 -21 -98 -36 -41 -15 -127 -46 -190 -70 -113 -42 -254 -94 -440 -162 -52 -19 -104 -38 -115 -43 -11 -4 -54 -20 -95 -35 -41 -14 -84 -30 -95 -35 -11 -4 -60 -22 -110 -40 -49 -18 -147 -54 -216 -81 -70 -26 -153 -57 -185 -68 -33 -11 -77 -28 -99 -37 -22 -10 -58 -23 -80 -30 -67 -20 -270 -96 -275 -104 -3 -4 -21 -10 -40 -14 -19 -3 -53 -15 -75 -25 -22 -10 -53 -22 -69 -25 -15 -4 -47 -15 -70 -25 -22 -10 -66 -26 -96 -36 -30 -10 -73 -26 -95 -35 -22 -10 -62 -25 -90 -35 -27 -9 -59 -20 -70 -25 -11 -5 -54 -21 -95 -36 -41 -15 -79 -30 -85 -34 -5 -4 -25 -10 -42 -13 -18 -4 -52 -16 -75 -27 -23 -11 -47 -20 -54 -20 -7 0 -39 -11 -71 -24 -32 -13 -92 -36 -133 -51 -41 -15 -84 -30 -95 -35 -11 -5 -67 -25 -125 -45 -58 -21 -118 -43 -135 -50 -16 -8 -61 -25 -100 -39 -122 -44 -209 -76 -230 -85 -11 -4 -42 -16 -70 -26 -27 -9 -79 -28 -115 -42 -36 -13 -94 -35 -130 -48 -36 -13 -110 -40 -165 -60 -55 -20 -131 -48 -170 -62 -38 -13 -83 -31 -100 -39 -16 -7 -50 -20 -75 -28 -68 -22 -202 -71 -241 -89 -19 -8 -47 -18 -63 -22 -15 -3 -47 -14 -70 -24 -22 -11 -77 -31 -121 -47 -44 -15 -84 -31 -89 -36 -6 -4 -17 -8 -25 -8 -8 0 -49 -13 -90 -29 -42 -17 -103 -40 -136 -52 -33 -13 -62 -26 -65 -29 -3 -4 -18 -10 -35 -13 -45 -8 -105 -31 -105 -39 0 -5 -9 -8 -21 -8 -17 0 -79 -21 -174 -60 -11 -4 -51 -19 -90 -33 -171 -60 -332 -121 -372 -139 -31 -15 -152 -16 -161 -1 -10 14 -88 43 -117 43 -14 0 -25 5 -25 10 0 6 -9 10 -21 10 -11 0 -27 7 -35 15 -8 8 -34 20 -57 26 -23 6 -51 15 -62 19 -69 28 -108 40 -125 40 -11 0 -20 5 -20 10 0 6 -5 10 -12 10 -6 0 -31 9 -54 20 -23 12 -60 24 -81 27 -21 3 -40 9 -43 13 -7 10 -96 40 -120 40 -10 0 -20 4 -22 8 -4 11 -87 48 -127 57 -19 4 -57 18 -85 31 -28 13 -58 24 -66 24 -9 0 -33 9 -55 20 -22 11 -47 20 -57 20 -9 0 -20 5 -23 10 -3 6 -13 10 -21 10 -9 0 -39 11 -67 24 -29 13 -68 27 -87 31 -19 4 -39 11 -45 15 -11 8 -113 46 -235 87 -41 14 -93 34 -116 44 -22 11 -47 19 -55 19 -8 0 -19 4 -25 9 -5 4 -34 16 -64 26 -30 10 -64 21 -75 25 -118 45 -163 63 -177 71 -10 5 -25 9 -34 9 -9 0 -32 7 -52 16 -21 9 -46 20 -57 24 -11 4 -48 20 -83 34 -35 14 -69 26 -77 26 -7 0 -26 7 -41 15 -16 8 -39 15 -51 15 -13 0 -23 5 -23 10 0 6 -11 10 -25 10 -14 0 -25 3 -25 8 0 4 -28 15 -63 25 -34 10 -70 23 -79 28 -10 5 -25 9 -33 9 -8 0 -15 4 -15 9 0 5 -14 13 -32 16 -18 4 -39 11 -48 16 -32 16 -101 39 -120 39 -11 0 -20 5 -20 10 0 6 -8 10 -18 10 -10 0 -36 8 -58 19 -21 10 -64 26 -94 36 -30 10 -69 24 -87 32 -17 7 -40 13 -52 13 -12 0 -21 5 -21 10 0 6 -11 10 -25 10 -14 0 -25 4 -25 8 0 5 -26 17 -57 27 -32 10 -76 26 -98 35 -22 10 -51 21 -65 24 -14 4 -35 11 -47 17 -100 41 -152 59 -173 59 -11 0 -20 4 -20 8 0 10 -148 62 -174 62 -9 0 -16 4 -16 8 0 8 -80 39 -115 44 -11 2 -22 6 -25 9 -9 10 -90 39 -110 39 -11 0 -20 5 -20 10 0 6 -6 10 -13 10 -7 0 -64 20 -127 45 -63 25 -131 48 -150 51 -19 4 -37 10 -40 13 -9 12 -113 51 -152 57 -21 4 -38 10 -38 13 0 4 -24 15 -52 25 -29 10 -66 24 -83 31 -16 7 -59 23 -95 35 -36 12 -76 26 -90 32 -30 13 -44 18 -140 53 -41 14 -84 30 -95 35 -11 4 -60 22 -110 40 -49 18 -154 57 -231 87 -78 29 -158 56 -178 60 -20 3 -36 10 -36 14 0 5 -7 9 -15 9 -8 0 -23 4 -33 9 -35 19 -89 40 -167 65 -44 15 -90 31 -102 36 -46 20 -69 29 -118 45 -27 10 -59 21 -70 25 -39 16 -185 70 -232 86 -27 9 -61 22 -78 29 -16 7 -52 21 -80 30 -27 9 -59 21 -70 25 -11 5 -54 21 -95 35 -91 33 -105 38 -152 59 -20 9 -43 16 -52 16 -9 0 -24 4 -34 9 -9 5 -28 13 -42 19 -14 5 -41 17 -62 26 -20 9 -43 16 -51 16 -9 0 -19 5 -22 10 -3 6 -17 10 -30 10 -13 0 -27 5 -30 10 -3 6 -13 10 -22 10 -8 0 -31 7 -51 16 -121 53 -153 64 -183 64 -16 0 -29 4 -29 8 0 4 -24 16 -53 26 -59 20 -73 26 -139 55 -26 11 -65 24 -87 27 -23 4 -41 10 -41 15 0 5 -7 9 -15 9 -9 0 -22 5 -29 12 -11 10 -11 15 0 25 7 7 20 13 28 13 9 0 16 5 16 10 0 6 11 10 25 10 14 0 25 4 25 9 0 4 19 11 43 13 23 3 62 14 87 25 25 11 86 33 135 50 163 56 220 78 223 86 2 4 14 7 28 7 13 0 57 13 99 30 41 16 103 39 137 50 35 11 72 25 83 30 11 5 31 12 45 16 14 3 43 14 65 24 22 9 58 22 80 29 36 11 73 24 260 91 28 10 84 30 125 45 41 15 84 30 95 35 11 5 47 18 80 29 33 11 105 36 160 56 55 20 114 41 130 47 17 5 39 13 50 18 11 5 40 15 65 24 62 21 301 106 440 157 178 65 267 96 368 130 50 17 92 35 92 39 0 4 16 10 36 13 31 5 122 36 199 68 11 4 37 13 58 20 20 7 37 17 37 21 0 4 3 7 8 6 14 -3 77 14 117 32 22 10 63 25 90 33 91 28 125 42 125 49 0 5 11 8 25 8 25 0 106 28 115 40 3 4 21 10 40 13 32 7 123 38 160 56 8 4 43 16 78 26 34 11 62 23 62 27 0 5 9 8 19 8 21 0 159 47 176 60 6 4 26 11 45 15 19 4 41 11 50 16 8 5 35 15 60 23 81 27 120 42 126 49 4 4 14 7 23 7 9 0 46 11 83 25 38 14 101 37 141 51 158 57 213 77 237 87 51 20 67 26 145 52 44 15 110 38 148 51 37 13 100 36 140 50 39 14 81 29 92 34 11 5 43 16 70 25 28 10 59 21 70 26 11 4 49 18 85 29 36 12 79 28 95 35 17 8 66 26 110 40 94 31 210 72 245 87 50 21 65 27 90 33 14 4 54 17 90 30 36 13 124 45 195 70 72 25 139 50 150 55 11 4 56 21 100 35 44 15 85 31 90 35 6 4 26 11 45 15 19 4 53 15 75 25 22 10 64 25 94 35 30 9 73 25 95 34 23 10 68 26 101 36 33 11 67 22 75 26 8 4 49 19 90 34 41 15 84 30 95 35 11 5 33 11 49 15 16 3 48 15 70 26 22 10 46 19 53 19 11 0 97 31 168 60 11 5 36 14 55 20 19 7 64 23 100 36 77 27 77 27 121 13z" />
<path d="M7740 10044 c0 -1132 3 -1658 11 -1687 14 -57 55 -114 114 -160 56 -43 193 -137 200 -137 2 0 23 -13 47 -29 64 -43 258 -149 383 -210 61 -29 122 -60 138 -68 38 -20 210 -92 392 -165 540 -216 1342 -420 2000 -508 39 -6 99 -14 135 -19 201 -30 653 -71 1005 -91 183 -11 1243 -16 1335 -6 25 3 95 8 155 11 520 29 1077 95 1520 181 237 46 280 55 335 69 30 8 105 26 165 40 182 43 227 55 295 75 36 11 112 33 170 50 131 39 232 72 245 81 6 4 26 10 45 14 39 8 269 93 285 105 6 4 23 10 39 14 15 4 47 15 70 26 22 10 86 37 141 60 183 77 363 168 620 314 50 28 234 149 269 176 60 47 87 75 110 115 l26 43 0 1674 0 1673 -245 3 -245 2 0 -1573 0 -1573 -25 -22 c-14 -12 -29 -22 -34 -22 -4 0 -21 -11 -37 -25 -16 -14 -34 -25 -39 -25 -6 0 -28 -12 -50 -27 -22 -15 -71 -44 -110 -64 -155 -80 -175 -92 -181 -100 -3 -5 -11 -9 -19 -9 -7 0 -64 -24 -126 -54 -63 -29 -125 -57 -139 -61 -14 -4 -41 -15 -60 -25 -19 -10 -57 -26 -85 -35 -27 -10 -68 -26 -90 -35 -22 -10 -62 -25 -90 -35 -27 -10 -54 -21 -60 -25 -5 -4 -27 -10 -47 -14 -20 -4 -69 -20 -109 -36 -39 -17 -76 -30 -82 -30 -6 0 -47 -11 -91 -24 -45 -14 -124 -37 -176 -53 -52 -15 -96 -31 -98 -35 -2 -4 -16 -8 -30 -8 -27 0 -179 -34 -322 -72 -41 -11 -93 -22 -115 -25 -22 -3 -44 -9 -49 -14 -6 -5 -26 -9 -45 -9 -43 0 -199 -29 -223 -41 -10 -5 -35 -9 -55 -9 -21 -1 -87 -10 -148 -22 -60 -11 -143 -22 -182 -25 -40 -2 -73 -8 -73 -12 0 -4 -51 -11 -112 -14 -62 -4 -131 -11 -153 -17 -22 -5 -68 -10 -102 -10 -34 0 -65 -4 -68 -10 -3 -6 -48 -10 -99 -10 -51 0 -149 -4 -217 -10 -548 -44 -1233 -44 -1778 0 -68 5 -171 10 -227 10 -63 0 -104 4 -104 10 0 6 -29 10 -68 10 -37 0 -83 5 -102 10 -19 6 -86 13 -147 17 -62 3 -113 10 -113 15 0 4 -38 8 -85 8 -47 0 -85 3 -85 8 0 10 -112 31 -208 39 -42 3 -79 9 -82 12 -8 11 -182 41 -233 41 -26 0 -47 5 -47 10 0 6 -17 10 -38 10 -21 0 -42 3 -46 7 -13 13 -82 33 -141 39 -33 4 -64 10 -70 14 -17 13 -139 40 -178 40 -20 0 -37 4 -37 8 0 11 -153 62 -186 62 -13 0 -32 4 -42 10 -29 16 -111 40 -137 40 -14 0 -25 4 -25 8 0 8 -118 52 -139 52 -7 0 -36 11 -65 24 -30 14 -70 28 -90 31 -20 4 -36 10 -36 14 0 9 -60 31 -83 31 -9 0 -17 5 -17 10 0 6 -8 10 -17 10 -10 0 -40 11 -67 25 -27 13 -65 28 -84 31 -20 4 -45 15 -56 25 -11 11 -28 19 -38 19 -10 0 -18 5 -18 10 0 6 -4 10 -9 10 -5 0 -39 14 -74 30 -36 16 -70 30 -75 30 -6 0 -12 3 -14 8 -5 11 -106 62 -123 62 -8 0 -15 5 -15 10 0 6 -7 10 -15 10 -8 0 -15 3 -15 8 0 4 -20 16 -45 27 -25 11 -45 23 -45 27 0 5 -7 8 -15 8 -8 0 -15 4 -15 9 0 5 -11 12 -25 15 -14 4 -25 11 -25 16 0 6 -9 10 -20 10 -11 0 -20 4 -20 9 0 5 -10 13 -22 17 -12 3 -30 16 -40 28 -16 20 -17 103 -18 1594 l0 1572 -250 0 -250 0 0 -1646z" />
</g>
</svg>