<svg width="28" height="28" viewBox="0 0 28 28" fill="none" xmlns="http://www.w3.org/2000/svg">
<path d="M16.6667 13.9998C16.6667 14.9865 16.1333 15.8398 15.3333 16.2932V27.3332H12.6667V16.2932C11.8667 15.8265 11.3333 14.9865 11.3333 13.9998C11.3333 12.5332 12.5333 11.3332 14 11.3332C15.4667 11.3332 16.6667 12.5332 16.6667 13.9998ZM14 5.99984C9.58666 5.99984 6 9.5865 6 13.9998C6 16.3198 7 18.4132 8.58666 19.8665L10.48 17.9732C9.91159 17.4787 9.45566 16.8683 9.14288 16.183C8.8301 15.4976 8.66772 14.7532 8.66666 13.9998C8.66666 11.0532 11.0533 8.6665 14 8.6665C16.9467 8.6665 19.3333 11.0532 19.3333 13.9998C19.3333 15.5865 18.6267 16.9998 17.52 17.9732L19.4133 19.8665C20.2285 19.1221 20.8796 18.2159 21.3249 17.2058C21.7703 16.1957 22.0002 15.1038 22 13.9998C22 9.5865 18.4133 5.99984 14 5.99984ZM14 0.666504C6.64 0.666504 0.666664 6.63984 0.666664 13.9998C0.666664 17.7998 2.26666 21.2132 4.81333 23.6532L6.70666 21.7598C5.64399 20.7655 4.79639 19.5639 4.2162 18.2293C3.63601 16.8946 3.33554 15.4552 3.33333 13.9998C3.33333 8.11984 8.12 3.33317 14 3.33317C19.88 3.33317 24.6667 8.11984 24.6667 13.9998C24.6667 17.0532 23.36 19.8132 21.2933 21.7598L23.1867 23.6532C25.7333 21.2132 27.3333 17.7998 27.3333 13.9998C27.3333 6.63984 21.36 0.666504 14 0.666504Z" fill="#0290A1"/>
</svg>
