<svg width="16" height="30" viewBox="0 0 16 30" fill="none" xmlns="http://www.w3.org/2000/svg">
<path d="M13.4999 6.99992V22.3333C13.4999 25.2799 11.1133 27.6666 8.16659 27.6666C5.21992 27.6666 2.83325 25.2799 2.83325 22.3333V5.66658C2.83325 4.78253 3.18444 3.93468 3.80956 3.30956C4.43468 2.68444 5.28253 2.33325 6.16659 2.33325C7.05064 2.33325 7.89849 2.68444 8.52361 3.30956C9.14873 3.93468 9.49992 4.78253 9.49992 5.66658V19.6666C9.49992 20.3999 8.89992 20.9999 8.16659 20.9999C7.43325 20.9999 6.83325 20.3999 6.83325 19.6666V6.99992H4.83325V19.6666C4.83325 20.5506 5.18444 21.3985 5.80956 22.0236C6.43468 22.6487 7.28253 22.9999 8.16659 22.9999C9.05064 22.9999 9.89849 22.6487 10.5236 22.0236C11.1487 21.3985 11.4999 20.5506 11.4999 19.6666V5.66658C11.4999 2.71992 9.11325 0.333252 6.16659 0.333252C3.21992 0.333252 0.833252 2.71992 0.833252 5.66658V22.3333C0.833252 26.3866 4.11325 29.6666 8.16659 29.6666C12.2199 29.6666 15.4999 26.3866 15.4999 22.3333V6.99992H13.4999Z" fill="#6B398A"/>
</svg>
