<svg width="27" height="22" viewBox="0 0 27 22" fill="none" xmlns="http://www.w3.org/2000/svg">
<path d="M2.83341 21.6666C2.10008 21.6666 1.47253 21.4057 0.950748 20.8839C0.428081 20.3613 0.166748 19.7333 0.166748 18.9999V2.99992C0.166748 2.26659 0.428081 1.63903 0.950748 1.11725C1.47253 0.594585 2.10008 0.333252 2.83341 0.333252H18.8334C19.5667 0.333252 20.1947 0.594585 20.7174 1.11725C21.2392 1.63903 21.5001 2.26659 21.5001 2.99992V8.99992L26.8334 3.66659V18.3333L21.5001 12.9999V18.9999C21.5001 19.7333 21.2392 20.3613 20.7174 20.8839C20.1947 21.4057 19.5667 21.6666 18.8334 21.6666H2.83341Z" fill="#0D2860"/>
</svg>
